<?xml version="1.0" encoding="UTF-8"?>
<!-- Generator: Adobe Illustrator 24.1.1, SVG Export Plug-In . SVG Version: 6.00 Build 0)  -->
<svg width="933.6" height="205.53" version="1.1" viewBox="0 0 933.6 205.53" xml:space="preserve" xmlns="http://www.w3.org/2000/svg">
<style type="text/css">
	.st0{fill:#FFFFFF;}
	.st1{display:none;}
	.st2{display:inline;}
	.st3{fill:#F5A336;}
	.st4{display:inline;fill:#F18B3F;}
	.st5{fill:#D75A2F;}
	.st6{display:inline;fill:#FFFFFF;}
	.st7{fill:#054351;}
</style>
<switch transform="translate(-66.855 -445.47)">
	<foreignObject width="1" height="1" requiredExtensions="http://ns.adobe.com/AdobeIllustrator/10.0/">
		
	</foreignObject>
	<g>
		
		
		
		<g id="TEXTO_1_">
			
				
					
						<path class="st0" d="m428.89 527.18c3.73-3.39 7.95-5.95 12.67-7.67 4.71-1.72 9.54-2.59 14.48-2.59 4.14 0 7.67 0.4 10.6 1.21s5.28 1.7 7.07 2.67c1.78 0.98 3.02 1.7 3.71 2.16 1.61 1.03 2.96 1.9 4.05 2.59s2.27 1.03 3.53 1.03c1.38 0 2.76-0.46 4.14-1.38s2.76-2.36 4.14-4.31c0.8-1.15 1.44-2.27 1.9-3.36s0.63-2.33 0.52-3.71c-0.12-2.07-1.01-3.82-2.67-5.26-1.67-1.44-3.42-2.73-5.26-3.88-0.92-0.57-2.7-1.58-5.34-3.02s-6.09-2.79-10.34-4.05-9.31-1.9-15.17-1.9c-5.75 0.12-11.52 1.01-17.32 2.67-5.8 1.67-11.32 4.11-16.55 7.33s-9.88 7.24-13.96 12.07-7.32 10.43-9.74 16.82c-2.41 6.38-3.62 13.54-3.62 21.47 0 8.05 1.21 15.38 3.62 21.99s5.66 12.42 9.74 17.42 8.76 9.2 14.05 12.59c5.28 3.39 10.8 5.92 16.55 7.59 5.74 1.67 11.43 2.5 17.06 2.5 5.97 0 11.09-0.6 15.34-1.81s7.67-2.53 10.25-3.97c2.59-1.44 4.34-2.44 5.26-3.02 1.84-1.03 3.59-2.27 5.26-3.71 1.66-1.44 2.56-3.19 2.67-5.26 0.11-1.26-0.06-2.47-0.52-3.62s-1.09-2.36-1.9-3.62c-1.27-2.07-2.56-3.56-3.88-4.48s-2.67-1.38-4.05-1.38c-1.27 0-2.47 0.34-3.62 1.03s-2.36 1.44-3.62 2.24c-1.03 0.58-2.56 1.41-4.57 2.5s-4.42 2.01-7.24 2.76-6.18 1.12-10.08 1.12c-4.94 0-9.77-0.86-14.48-2.59-4.71-1.72-8.94-4.28-12.67-7.67s-6.69-7.59-8.88-12.59c-2.18-5-3.27-10.72-3.27-17.16s1.09-12.16 3.27-17.16 5.14-9.2 8.87-12.59z"/>
						<path class="st0" d="m588.74 533.9c-1.38-0.98-3.68-1.47-6.89-1.47-3.45 0-5.98 0.66-7.58 1.98-1.61 1.32-2.41 3.25-2.41 5.78l1.03 5c-1.49-2.07-3.39-4.05-5.69-5.95s-5.08-3.48-8.36-4.74c-3.27-1.26-7.27-1.9-11.98-1.9-5.29 0-10.31 1.12-15.08 3.36s-8.99 5.32-12.67 9.23-6.58 8.36-8.7 13.37c-2.13 5-3.19 10.32-3.19 15.95 0 5.86 1.06 11.36 3.19 16.47 2.12 5.12 5 9.66 8.62 13.63s7.81 7.07 12.58 9.31 9.85 3.36 15.25 3.36c5.05 0 9.36-0.78 12.93-2.33 3.56-1.55 6.43-3.33 8.62-5.35 2.18-2.01 3.73-3.76 4.65-5.26l-1.21 5.69c0 2.19 0.8 3.91 2.41 5.17s4.08 1.9 7.41 1.9c3.22 0 5.54-0.46 6.98-1.38s2.33-2.18 2.67-3.79 0.52-3.39 0.52-5.35v-63.12c0-2.07-0.17-3.94-0.52-5.61-0.34-1.64-1.2-2.97-2.58-3.95zm-20.77 52.26c-1.9 3.39-4.39 6.07-7.5 8.02-3.1 1.96-6.61 2.93-10.51 2.93-4.25 0-8.07-0.98-11.46-2.93s-6.06-4.6-8.01-7.93c-1.96-3.33-2.93-7.07-2.93-11.21 0-4.25 0.95-8.08 2.84-11.47 1.9-3.39 4.51-6.09 7.84-8.11 3.33-2.01 7.12-3.02 11.37-3.02 3.9 0 7.44 0.95 10.6 2.85s5.71 4.51 7.67 7.85c1.95 3.34 2.93 7.24 2.93 11.73 0.01 4.13-0.94 7.9-2.84 11.29z"/>
						<path class="st0" d="m718.25 537.27c-4.54-3.33-10.14-5-16.8-5-4.02 0-7.64 0.72-10.86 2.16s-6.03 3.39-8.44 5.86-4.6 5.2-6.55 8.19c-1.84-3.45-3.99-6.38-6.46-8.8-2.47-2.41-5.29-4.25-8.44-5.52-3.16-1.26-6.64-1.9-10.43-1.9-2.76 0-5.4 0.46-7.93 1.38s-4.8 2.13-6.81 3.62c-2.01 1.5-3.71 2.99-5.08 4.48-1.38 1.5-2.36 2.88-2.93 4.14l1.55-4.83c0-2.99-0.78-5.17-2.33-6.55s-3.99-2.07-7.32-2.07c-3.22 0-5.57 0.46-7.07 1.38-1.49 0.92-2.41 2.13-2.76 3.62-0.34 1.5-0.52 3.16-0.52 5v64.5c0 1.84 0.17 3.57 0.52 5.17 0.34 1.61 1.23 2.88 2.67 3.79 1.44 0.92 3.71 1.38 6.81 1.38 3.33 0 5.71-0.43 7.15-1.29s2.35-2.1 2.76-3.71c0.4-1.61 0.6-3.33 0.6-5.17v-33.8c0-4.02 0.63-7.59 1.9-10.69 1.26-3.1 3.13-5.58 5.6-7.42s5.49-2.76 9.05-2.76c3.33 0 6 0.84 8.01 2.5 2.01 1.67 3.53 4.08 4.57 7.24 1.03 3.16 1.55 6.87 1.55 11.12v33.46c0 1.72 0.14 3.36 0.43 4.92 0.29 1.55 1.09 2.85 2.41 3.88s3.42 1.61 6.29 1.72c3.1 0.23 5.49-0.09 7.15-0.95s2.78-2.13 3.36-3.79c0.57-1.67 0.86-3.48 0.86-5.43v-33.63c0-4.48 0.69-8.28 2.07-11.38s3.3-5.49 5.77-7.16 5.43-2.5 8.88-2.5c3.22 0 5.83 0.86 7.84 2.59 2.01 1.72 3.53 4.14 4.57 7.24 1.03 3.1 1.55 6.79 1.55 11.04v33.46c0 1.96 0.17 3.71 0.52 5.26 0.34 1.55 1.26 2.82 2.76 3.79 1.49 0.98 3.85 1.47 7.07 1.47s5.54-0.46 6.98-1.38 2.35-2.16 2.76-3.71c0.4-1.55 0.6-3.3 0.6-5.26v-33.46c0-8.51-1.18-15.84-3.53-21.99-2.36-6.13-5.81-10.88-10.35-14.21z"/>
						<path class="st0" d="m820.97 544.77c-3.62-3.85-7.76-6.87-12.41-9.05s-9.62-3.28-14.91-3.28c-5.52 0-10.46 1.09-14.82 3.28-3.77 1.89-7.04 4.39-9.82 7.52v-39.08c0-1.84-0.17-3.56-0.52-5.17-0.34-1.61-1.21-2.87-2.59-3.79s-3.68-1.38-6.89-1.38c-3.1 0-5.4 0.46-6.89 1.38s-2.41 2.16-2.76 3.71c-0.34 1.55-0.52 3.31-0.52 5.26v102.79c0 1.96 0.17 3.71 0.52 5.26 0.34 1.55 1.26 2.82 2.76 3.79 1.49 0.98 3.79 1.47 6.89 1.47 3.33 0 5.71-0.55 7.15-1.64s2.38-2.9 2.84-5.43v-3.76c2.72 3 5.9 5.44 9.57 7.29 4.42 2.24 9.45 3.36 15.08 3.36 5.28 0 10.28-1.09 14.99-3.28 4.71-2.18 8.85-5.2 12.41-9.05s6.38-8.39 8.44-13.63c2.07-5.23 3.1-10.84 3.1-16.82 0-5.75-1.03-11.18-3.1-16.3-2.06-5.11-4.9-9.6-8.52-13.45zm-11.55 41.65c-1.9 3.34-4.45 5.95-7.67 7.85s-6.84 2.85-10.86 2.85c-3.91 0-7.47-0.95-10.69-2.85s-5.77-4.51-7.67-7.85c-1.9-3.33-2.84-7.13-2.84-11.38 0-4.37 0.95-8.22 2.84-11.56 1.9-3.33 4.45-5.98 7.67-7.93s6.78-2.93 10.69-2.93c4.02 0 7.64 0.95 10.86 2.85s5.77 4.54 7.67 7.93 2.84 7.27 2.84 11.64c0.01 4.25-0.94 8.05-2.84 11.38z"/>
						<path class="st0" d="m901.88 535.03c-1.27-0.8-2.67-1.47-4.22-1.98-1.55-0.52-3.1-0.92-4.65-1.21s-3.02-0.43-4.39-0.43c-3.33 0-6.2 0.43-8.62 1.29-2.41 0.86-4.48 1.96-6.2 3.28s-3.1 2.65-4.14 3.97c-1.03 1.32-1.84 2.44-2.41 3.36l1.38-3.1c0-1.15-0.2-2.33-0.6-3.54s-1.32-2.21-2.76-3.02c-1.44-0.8-3.71-1.21-6.81-1.21-3.22 0-5.54 0.43-6.98 1.29s-2.33 2.07-2.67 3.62-0.52 3.36-0.52 5.43v63.99c0 1.96 0.17 3.74 0.52 5.35 0.34 1.61 1.23 2.91 2.67 3.88 1.44 0.98 3.71 1.47 6.81 1.47 3.33 0 5.74-0.46 7.24-1.38 1.49-0.92 2.41-2.16 2.76-3.71 0.34-1.55 0.52-3.3 0.52-5.26v-41.91c0-2.3 0.46-4.34 1.38-6.12s2.12-3.25 3.62-4.4c1.49-1.15 3.13-2.01 4.91-2.59 1.78-0.57 3.53-0.86 5.26-0.86 2.07 0 3.59 0.17 4.57 0.52 0.97 0.34 1.72 0.75 2.24 1.21s1.18 0.86 1.98 1.21c0.8 0.34 2.07 0.52 3.79 0.52 2.53 0 4.71-1.26 6.55-3.79s2.76-5.63 2.76-9.31c0-1.38-0.34-2.61-1.03-3.71-0.72-1.11-1.69-2.06-2.96-2.86z"/>
						<path class="st0" d="m999.95 537.87c-0.34-1.67-1.21-2.99-2.59-3.97s-3.68-1.47-6.89-1.47c-3.45 0-5.98 0.66-7.58 1.98-1.61 1.32-2.41 3.25-2.41 5.78l1.03 5c-1.49-2.07-3.39-4.05-5.69-5.95s-5.08-3.48-8.36-4.74c-3.27-1.26-7.27-1.9-11.98-1.9-5.29 0-10.31 1.12-15.08 3.36s-8.99 5.32-12.67 9.23-6.58 8.36-8.7 13.37c-2.13 5-3.19 10.32-3.19 15.95 0 5.86 1.06 11.36 3.19 16.47 2.12 5.12 5 9.66 8.62 13.63s7.81 7.07 12.58 9.31 9.85 3.36 15.25 3.36c5.05 0 9.36-0.78 12.93-2.33 3.56-1.55 6.43-3.33 8.62-5.35 2.18-2.01 3.73-3.76 4.65-5.26l-1.21 5.69c0 2.19 0.8 3.91 2.41 5.17s4.08 1.9 7.41 1.9c3.22 0 5.54-0.46 6.98-1.38s2.33-2.18 2.67-3.79 0.52-3.39 0.52-5.35v-63.12c0-2.05-0.17-3.92-0.51-5.59zm-23.36 48.29c-1.9 3.39-4.39 6.07-7.5 8.02-3.1 1.96-6.61 2.93-10.51 2.93-4.25 0-8.07-0.98-11.46-2.93s-6.06-4.6-8.01-7.93c-1.96-3.33-2.93-7.07-2.93-11.21 0-4.25 0.95-8.08 2.84-11.47 1.9-3.39 4.51-6.09 7.84-8.11 3.33-2.01 7.12-3.02 11.37-3.02 3.9 0 7.44 0.95 10.6 2.85s5.71 4.51 7.67 7.85c1.95 3.34 2.93 7.24 2.93 11.73 0.01 4.13-0.94 7.9-2.84 11.29z"/>
					
				
			
		</g>
		<g id="BRILLO_1_">
			
				<path class="st0" d="m84.29 537.9c8.32 8.63 18.14 11.29 29.59 7.27 4.25-1.49 8.59-2.53 13.01-2.73 1.95-0.16 3.8-0.23 5.65-0.09 0.73 0.06 1.45 0.14 2.17 0.23 1.64-4.18 4.07-7.95 7.12-11.14-4.92-1.65-9.98-2.52-15.19-2.56-2.68-0.02-5.06 1.01-7.43 2.04-7.68 3.31-15.61 4.25-23.83 2.73-4.94-0.91-9.71-2.38-14.34-4.33-1.16-0.49-1.93-0.3-2.5 0.55-0.63 0.93 0.06 1.6 0.59 2.22 1.69 1.96 3.36 3.95 5.16 5.81z"/>
				<path class="st0" d="m142.03 578.93c-3.19-3.28-5.72-7.2-7.39-11.54-1.95 0.4-3.87 0.93-5.76 1.57-9.56 3.24-16.93 8.98-21.14 18.38-2.42 5.41-4.46 10.95-5.93 16.69-0.88 3.46-1.05 6.97-0.57 10.52 0.08 0.63 0.34 1.07 0.92 1.28 0.61 0.22 1.01-0.18 1.3-0.63 0.38-0.59 0.73-1.2 1.02-1.83 1.3-2.84 2.16-5.84 3.33-8.72 3.83-9.36 10.19-16.27 19.74-19.9 4.84-1.84 9.97-2.76 14.96-4.11 0.25-0.07 0.48-0.11 0.71-0.15-0.4-0.52-0.8-1.04-1.19-1.56z"/>
				<path class="st0" d="m112.53 569.81c6.08-4.65 12.78-7.78 20.36-8.71-0.35-1.95-0.53-3.96-0.53-6.01 0-2.5 0.27-4.93 0.78-7.28-2.79 0.03-5.54 0.42-8.25 1.05-7.99 1.87-15.3 5.14-21.47 10.7-4.61 4.16-10.16 6.07-16.27 6.47-5.16 0.34-10.28-0.13-15.38-0.89-1.38-0.21-2.79-0.41-4.14 0.16-0.95 0.4-1.01 0.93-0.27 1.64 0.91 0.88 1.94 1.61 3.01 2.28 2.94 1.85 5.93 3.65 9.27 4.65 3.01 0.9 6.12 1.47 9.24 1.92 5.53 0.79 10.98 0.69 16.1-1.89 2.56-1.3 5.24-2.32 7.55-4.09z"/>
				<path class="st0" d="m346.48 528.91c-1.31-14.07-6.36-40.66-26.18-60.05-13.21-12.92-32.98-22.65-62.58-23.35-1.13-0.03-2.27-0.04-3.42-0.04-15.63 0-26.27 6.04-36.55 15.4-0.42 0.51-0.84 1.03-1.26 1.57-6 7.78-11.01 19.06-10.75 34.35 0.27 15.42 10.42 24.88 21.19 31.98 2.45 1.61 4.99 2.97 7.55 4.06 1.95 0.83 2.98 2.98 2.41 5.02-0.97 3.44-2.17 6.78-3.59 10.01-11.91 27.07-39.14 45.98-70.58 45.98-6.77 0-13.1-0.83-19.33-2.48-0.33-0.09-0.63 0.22-0.53 0.54 0.44 1.47 0.91 2.94 1.39 4.4 5.73 17.28 17.7 31.82 33.63 40.62 16.22 8.97 34.88 14.08 54.73 14.08 8.69 0 17.19-0.98 25.38-2.83 34.24-7.75 63.11-30.77 78.04-61.46 7.21-14.82 11.18-31.44 10.92-48.98-0.01-1.41-0.07-4.54-0.47-8.82zm-88.75-31.59v0.21l-0.06-0.21h0.06z"/>
				<path class="st0" d="m166.79 528.83c-14.46 0-26.19 11.73-26.19 26.19s11.73 26.19 26.19 26.19 26.19-11.73 26.19-26.19c0-14.47-11.72-26.19-26.19-26.19zm-0.06 40.01c-7.67 0-13.89-6.22-13.89-13.89s6.22-13.89 13.89-13.89c2.55 0 4.94 0.69 6.99 1.89-3.53 0.96-6.13 4.18-6.13 8.02 0 4.59 3.72 8.31 8.31 8.31 1.61 0 3.11-0.46 4.38-1.25-1.4 6.19-6.94 10.81-13.55 10.81z"/>
				<path class="st0" d="m130.12 523.63c15.87-1.56 35.39-1.96 35.39-1.96 19.92-0.41 36.04 16.38 36.45 36.3 0.1 4.75-0.74 9.3-2.33 13.5-0.64 1.68 1.28 3.18 2.75 2.15 11.37-7.99 20.3-19.19 25.49-32.26 0.9-2.26-0.09-4.82-2.25-5.92-15.14-7.71-25.66-23.3-26.03-41.48-0.18-8.93 2.11-17.34 6.24-24.56 1.05-1.84-0.51-4.08-2.6-3.73-32.68 5.46-60.5 24.89-77.29 51.83-1.88 2.99 0.67 6.47 4.18 6.13z"/>
			
		</g>
		<g id="CLAROS" class="st1">
			<g class="st2">
				
					
						
							<path class="st3" d="m605.95 324.87h-0.12l0.12 0.4z"/>
							<path class="st3" d="m726.63 269.99-75.74 73.21c-11.04-11.32-26.46-18.35-43.52-18.35-0.47 0-0.95 0.01-1.42 0.02v0.4l-0.12-0.4h0.12v-99.9c-2.17-0.05-4.37-0.08-6.6-0.08-30.14 0-50.65 11.65-70.49 29.69-0.81 0.97-1.62 1.98-2.42 3.02l47.12 74.82 1.2 1.9 0.01-0.01 11.36 17.75c-11.03 6.7-18.4 18.83-18.4 32.68 0 21.1 17.11 38.21 38.21 38.21s38.21-17.11 38.21-38.21c0-9.83-3.71-18.79-9.81-25.56 11.62-1.81 29.17 8 33.82 26.59v0.01h108.93c-2.51-27.13-12.24-78.4-50.46-115.79z"/>
							<path class="st3" d="m607.37 446.46c-0.3 0-0.6-0.01-0.9-0.01v169.31c66.03-14.94 121.7-59.34 150.5-118.52l-100.66-75.49c-11.08 14.99-28.87 24.71-48.94 24.71z"/>
							<circle class="st3" cx="430.59" cy="436.13" r="50.5"/>
						
						
							<path class="st3" d="m353.17 385.74c-5.18-0.04-9.77 1.96-14.34 3.93-14.81 6.39-30.1 8.2-45.95 5.27-9.53-1.76-18.72-4.59-27.65-8.35-2.23-0.94-3.72-0.59-4.83 1.06-1.21 1.8 0.11 3.09 1.13 4.28 3.26 3.79 6.49 7.61 9.96 11.21 16.05 16.64 34.98 21.77 57.06 14.01 8.19-2.88 16.57-4.88 25.1-5.26 3.75-0.32 7.33-0.45 10.9-0.17 1.4 0.11 2.79 0.27 4.19 0.44 3.16-8.05 7.86-15.33 13.73-21.48-9.49-3.19-19.26-4.86-29.3-4.94z"/>
							<path class="st3" d="m357.49 463c-18.43 6.24-32.65 17.31-40.77 35.44-4.67 10.43-8.61 21.11-11.44 32.19-1.7 6.67-2.02 13.45-1.1 20.28 0.16 1.21 0.66 2.06 1.76 2.46 1.18 0.43 1.95-0.35 2.51-1.22 0.73-1.13 1.41-2.3 1.97-3.53 2.5-5.47 4.16-11.26 6.43-16.82 7.38-18.04 19.64-31.37 38.07-38.38 9.34-3.55 19.22-5.32 28.85-7.92 0.48-0.13 0.93-0.22 1.37-0.29-0.8-0.97-1.57-1.97-2.32-2.98-6.14-6.33-11.03-13.88-14.25-22.25-3.74 0.77-7.44 1.79-11.08 3.02z"/>
							<path class="st3" d="m365.7 422.22c-5.38 0.06-10.69 0.8-15.92 2.03-15.4 3.61-29.5 9.9-41.4 20.63-8.89 8.02-19.59 11.7-31.37 12.48-9.94 0.66-19.82-0.25-29.65-1.71-2.67-0.4-5.39-0.8-7.98 0.3-1.83 0.78-1.95 1.79-0.52 3.16 1.76 1.69 3.74 3.1 5.8 4.4 5.66 3.57 11.44 7.05 17.87 8.96 5.81 1.73 11.8 2.84 17.82 3.7 10.67 1.52 21.16 1.33 31.06-3.65 4.93-2.48 10.1-4.45 14.56-7.87 11.72-8.97 24.64-15 39.26-16.8-0.67-3.77-1.02-7.64-1.02-11.6-0.01-4.81 0.51-9.5 1.49-14.03z"/>
						
					
				
			</g>
		</g>
		<g id="MEDIOS" class="st1">
			<path class="st4" d="m607.37 324.85c17.06 0 32.48 7.03 43.52 18.35l75.74-73.21c-25.47-24.92-63.6-43.68-120.68-45.03v99.9c0.47 0 0.95-0.01 1.42-0.01z"/>
			<path class="st4" d="m778.03 402.78c-0.04-2.72-0.14-8.74-0.92-17h-108.93v-0.01c-4.65-18.59-22.2-28.4-33.82-26.59 6.1 6.77 9.81 15.73 9.81 25.56 0 21.1-17.11 38.21-38.21 38.21s-38.21-17.11-38.21-38.21c0-13.85 7.37-25.98 18.4-32.68l-11.36-17.75-0.01 0.01-1.2-1.9-47.12-74.82c-11.57 15.01-21.24 36.76-20.73 66.24 0.51 29.74 20.1 47.97 40.86 61.67 4.72 3.11 9.62 5.72 14.56 7.83 3.75 1.6 5.74 5.74 4.64 9.67-1.86 6.63-4.18 13.07-6.92 19.29-22.97 52.2-75.48 88.66-136.11 88.66-13.06 0-25.25-1.6-37.28-4.77-0.63-0.17-1.21 0.42-1.02 1.05 0.86 2.84 1.75 5.67 2.69 8.49 11.04 33.32 34.13 61.36 64.85 78.34 31.28 17.3 67.26 27.14 105.54 27.14 16.76 0 33.15-1.89 48.94-5.46v-169.3c0.3 0 0.6 0.01 0.9 0.01 20.07 0 37.86-9.72 48.94-24.72l100.66 75.49c13.9-28.58 21.54-60.61 21.05-94.45z"/>
		</g>
		<g id="OSCUROS" class="st1">
			<g class="st2">
				<path class="st5" d="m493.82 318.38c-0.35-17.22 4.06-33.43 12.03-47.37 2.03-3.56-0.98-7.88-5.02-7.2-63.02 10.53-116.68 47.99-149.04 99.95-3.6 5.78 1.31 12.5 8.08 11.83 30.61-3.01 68.24-3.78 68.24-3.78 38.42-0.78 69.5 31.58 70.28 70 0.19 9.15-1.42 17.94-4.5 26.04-1.23 3.24 2.47 6.13 5.3 4.14 21.93-15.41 39.15-37.01 49.15-62.22 1.73-4.36-0.17-9.29-4.35-11.41-29.18-14.86-49.46-44.92-50.17-79.98z"/>
			
			
				
					<path class="st5" d="m432.13 428.31c0-7.39 5.01-13.61 11.82-15.46-3.96-2.31-8.57-3.64-13.48-3.64-14.8 0-26.79 11.99-26.79 26.79s11.99 26.79 26.79 26.79c12.76 0 23.43-8.92 26.13-20.86-2.45 1.52-5.34 2.41-8.44 2.41-8.85-0.01-16.03-7.18-16.03-16.03z"/>
				
			</g>
		</g>
		<g id="BRILLO" class="st1">
			<path class="st6" d="m443.95 412.85c-6.81 1.85-11.82 8.07-11.82 15.46 0 8.85 7.17 16.02 16.02 16.02 3.1 0 5.99-0.88 8.44-2.41 0.43-1.91 0.66-3.89 0.66-5.93 0.01-9.87-5.34-18.5-13.3-23.14z"/>
		</g>
		<g id="TEXTO" class="st1">
			<g class="st2">
				<path class="st7" d="m186.76 735.82c4.9-4.45 10.44-7.8 16.62-10.06s12.51-3.39 19-3.39c5.43 0 10.06 0.53 13.91 1.58 3.84 1.06 6.93 2.23 9.27 3.5 2.34 1.28 3.96 2.23 4.86 2.83 2.11 1.36 3.88 2.49 5.31 3.39s2.98 1.36 4.64 1.36c1.81 0 3.62-0.6 5.43-1.81s3.62-3.09 5.43-5.65c1.05-1.51 1.88-2.98 2.49-4.41 0.6-1.43 0.83-3.05 0.68-4.86-0.15-2.71-1.32-5.01-3.51-6.9-2.19-1.88-4.49-3.58-6.9-5.09-1.21-0.75-3.54-2.07-7.01-3.96-3.47-1.88-7.99-3.65-13.57-5.31s-12.21-2.49-19.9-2.49c-7.54 0.15-15.12 1.32-22.73 3.51s-14.85 5.39-21.71 9.61-12.97 9.5-18.32 15.83-9.61 13.68-12.78 22.05-4.75 17.75-4.75 28.16c0 10.55 1.58 20.17 4.75 28.83 3.17 8.67 7.42 16.28 12.78 22.84 5.35 6.56 11.49 12.06 18.43 16.51 6.93 4.45 14.17 7.77 21.71 9.95s15 3.28 22.39 3.28c7.84 0 14.55-0.79 20.13-2.37s10.06-3.31 13.46-5.2c3.39-1.88 5.69-3.2 6.9-3.96 2.41-1.36 4.71-2.98 6.9-4.86 2.18-1.88 3.35-4.18 3.51-6.9 0.15-1.66-0.08-3.24-0.68-4.75s-1.43-3.09-2.49-4.75c-1.66-2.71-3.36-4.67-5.09-5.88-1.74-1.2-3.51-1.81-5.31-1.81-1.66 0-3.24 0.45-4.75 1.36-1.51 0.9-3.09 1.89-4.75 2.94-1.36 0.76-3.36 1.85-5.99 3.28-2.64 1.43-5.81 2.64-9.5 3.62-3.7 0.98-8.11 1.47-13.23 1.47-6.48 0-12.82-1.13-19-3.39s-11.72-5.61-16.62-10.06-8.78-9.95-11.65-16.51-4.3-14.06-4.3-22.5 1.43-15.94 4.3-22.5c2.86-6.58 6.74-12.08 11.64-16.53z"/>
				<path class="st7" d="m396.51 744.64c-1.81-1.28-4.83-1.92-9.05-1.92-4.52 0-7.84 0.87-9.95 2.6s-3.17 4.26-3.17 7.58l1.36 6.56c-1.96-2.71-4.45-5.31-7.46-7.8-3.02-2.49-6.67-4.56-10.97-6.22s-9.54-2.49-15.72-2.49c-6.94 0-13.53 1.47-19.79 4.41s-11.8 6.98-16.62 12.1c-4.83 5.13-8.63 10.97-11.42 17.53s-4.18 13.53-4.18 20.92c0 7.69 1.39 14.89 4.18 21.6s6.56 12.66 11.31 17.87c4.75 5.2 10.25 9.27 16.51 12.21 6.25 2.94 12.93 4.41 20.01 4.41 6.63 0 12.29-1.02 16.96-3.05 4.67-2.04 8.44-4.37 11.31-7.01 2.86-2.64 4.9-4.94 6.11-6.9l-1.58 7.46c0 2.87 1.05 5.13 3.17 6.78 2.11 1.66 5.35 2.49 9.72 2.49 4.22 0 7.27-0.6 9.16-1.81 1.88-1.21 3.05-2.86 3.51-4.98 0.45-2.11 0.68-4.44 0.68-7.01v-82.77c0-2.71-0.23-5.16-0.68-7.35-0.46-2.19-1.59-3.92-3.4-5.21zm-27.25 68.53c-2.49 4.45-5.77 7.95-9.84 10.52s-8.67 3.84-13.8 3.84c-5.58 0-10.59-1.28-15.04-3.84s-7.95-6.03-10.52-10.4-3.84-9.27-3.84-14.7c0-5.58 1.24-10.59 3.73-15.04s5.91-7.99 10.29-10.63c4.37-2.64 9.35-3.96 14.93-3.96 5.12 0 9.76 1.24 13.91 3.73 4.14 2.49 7.5 5.92 10.06 10.29s3.84 9.5 3.84 15.38c0.01 5.42-1.23 10.36-3.72 14.81z"/>
				<path class="st7" d="m566.46 749.05c-5.96-4.37-13.31-6.56-22.05-6.56-5.28 0-10.03 0.94-14.25 2.83s-7.92 4.45-11.08 7.69c-3.17 3.24-6.03 6.82-8.59 10.74-2.41-4.52-5.24-8.37-8.48-11.53-3.24-3.17-6.94-5.58-11.08-7.24-4.15-1.66-8.71-2.49-13.68-2.49-3.62 0-7.09 0.6-10.4 1.81-3.32 1.21-6.3 2.79-8.93 4.75-2.64 1.96-4.86 3.92-6.67 5.88s-3.09 3.77-3.84 5.43l2.04-6.33c0-3.92-1.02-6.78-3.05-8.59-2.04-1.81-5.24-2.71-9.61-2.71-4.22 0-7.31 0.6-9.27 1.81s-3.17 2.79-3.62 4.75-0.68 4.15-0.68 6.56v84.58c0 2.41 0.23 4.67 0.68 6.78s1.62 3.77 3.51 4.98c1.88 1.21 4.86 1.81 8.93 1.81 4.37 0 7.5-0.57 9.39-1.7 1.88-1.13 3.09-2.75 3.62-4.86s0.79-4.37 0.79-6.78v-44.33c0-5.28 0.83-9.95 2.49-14.02s4.11-7.31 7.35-9.72 7.2-3.62 11.87-3.62c4.37 0 7.88 1.1 10.52 3.28 2.64 2.19 4.64 5.35 5.99 9.5 1.36 4.15 2.04 9.01 2.04 14.59v43.87c0 2.26 0.19 4.41 0.57 6.45 0.37 2.04 1.43 3.73 3.17 5.09 1.73 1.36 4.48 2.11 8.25 2.26 4.07 0.3 7.2-0.11 9.39-1.24 2.18-1.13 3.65-2.79 4.41-4.98 0.75-2.18 1.13-4.56 1.13-7.12v-44.1c0-5.88 0.9-10.86 2.71-14.93s4.33-7.2 7.58-9.39c3.24-2.18 7.12-3.28 11.65-3.28 4.22 0 7.65 1.13 10.29 3.39s4.64 5.43 5.99 9.5c1.36 4.07 2.04 8.9 2.04 14.47v43.87c0 2.57 0.23 4.86 0.68 6.9s1.66 3.7 3.62 4.98 5.05 1.92 9.27 1.92 7.27-0.6 9.16-1.81c1.88-1.21 3.09-2.83 3.62-4.86 0.53-2.04 0.79-4.33 0.79-6.9v-43.87c0-11.16-1.55-20.77-4.64-28.83-3.14-8.08-7.67-14.3-13.62-18.68z"/>
				<path class="st7" d="m701.24 758.89c-4.75-5.05-10.18-9.01-16.28-11.87-6.11-2.86-12.63-4.3-19.56-4.3-7.24 0-13.72 1.43-19.45 4.3-4.94 2.47-9.24 5.76-12.89 9.86v-51.25c0-2.41-0.23-4.67-0.68-6.78s-1.58-3.77-3.39-4.97c-1.81-1.21-4.83-1.81-9.05-1.81-4.07 0-7.09 0.6-9.05 1.81s-3.17 2.83-3.62 4.86c-0.45 2.04-0.68 4.34-0.68 6.9v134.78c0 2.57 0.23 4.86 0.68 6.9s1.66 3.7 3.62 4.98 4.98 1.92 9.05 1.92c4.37 0 7.5-0.72 9.39-2.15 1.88-1.43 3.13-3.81 3.73-7.12v-4.93c3.57 3.93 7.74 7.13 12.55 9.57 5.8 2.94 12.4 4.41 19.79 4.41 6.93 0 13.49-1.43 19.67-4.3 6.18-2.86 11.61-6.82 16.28-11.87s8.37-11 11.08-17.87c2.71-6.86 4.07-14.21 4.07-22.05 0-7.54-1.36-14.66-4.07-21.37-2.71-6.72-6.44-12.6-11.19-17.65zm-15.15 54.62c-2.49 4.37-5.84 7.8-10.06 10.29s-8.97 3.73-14.25 3.73c-5.13 0-9.8-1.24-14.02-3.73s-7.58-5.92-10.06-10.29c-2.49-4.37-3.73-9.35-3.73-14.93 0-5.73 1.24-10.78 3.73-15.15s5.84-7.84 10.06-10.4 8.89-3.84 14.02-3.84c5.28 0 10.02 1.24 14.25 3.73 4.22 2.49 7.58 5.96 10.06 10.4 2.49 4.45 3.73 9.54 3.73 15.26 0 5.58-1.24 10.55-3.73 14.93z"/>
				<path class="st7" d="m807.42 746.11c-1.66-1.05-3.51-1.92-5.54-2.6-2.04-0.68-4.07-1.21-6.11-1.58s-3.96-0.57-5.77-0.57c-4.37 0-8.14 0.57-11.31 1.7s-5.88 2.57-8.14 4.3c-2.26 1.74-4.07 3.47-5.43 5.2s-2.41 3.2-3.17 4.41l1.81-4.07c0-1.51-0.27-3.05-0.79-4.64-0.53-1.58-1.74-2.9-3.62-3.96-1.89-1.05-4.86-1.58-8.93-1.58-4.22 0-7.28 0.57-9.16 1.7-1.89 1.13-3.05 2.71-3.51 4.75-0.45 2.04-0.68 4.41-0.68 7.12v83.9c0 2.57 0.23 4.9 0.68 7.01s1.62 3.81 3.51 5.09c1.88 1.28 4.86 1.92 8.93 1.92 4.37 0 7.54-0.6 9.5-1.81s3.17-2.83 3.62-4.86c0.45-2.04 0.68-4.33 0.68-6.9v-54.95c0-3.01 0.6-5.69 1.81-8.03s2.79-4.26 4.75-5.77 4.11-2.64 6.44-3.39c2.34-0.75 4.64-1.13 6.9-1.13 2.71 0 4.71 0.23 5.99 0.68s2.26 0.98 2.94 1.58 1.54 1.13 2.6 1.58c1.05 0.45 2.71 0.68 4.98 0.68 3.31 0 6.18-1.66 8.59-4.98 2.41-3.31 3.62-7.39 3.62-12.21 0-1.81-0.45-3.43-1.36-4.86-0.89-1.43-2.17-2.67-3.83-3.73z"/>
				<path class="st7" d="m936.09 749.84c-0.45-2.18-1.58-3.92-3.39-5.2s-4.83-1.92-9.05-1.92c-4.52 0-7.84 0.87-9.95 2.6s-3.17 4.26-3.17 7.58l1.36 6.56c-1.96-2.71-4.45-5.31-7.46-7.8-3.02-2.49-6.67-4.56-10.97-6.22s-9.54-2.49-15.72-2.49c-6.94 0-13.53 1.47-19.79 4.41s-11.8 6.98-16.62 12.1c-4.83 5.13-8.63 10.97-11.42 17.53s-4.18 13.53-4.18 20.92c0 7.69 1.39 14.89 4.18 21.6s6.56 12.66 11.31 17.87c4.75 5.2 10.25 9.27 16.51 12.21 6.25 2.94 12.93 4.41 20.01 4.41 6.63 0 12.29-1.02 16.96-3.05 4.67-2.04 8.44-4.37 11.31-7.01 2.86-2.64 4.9-4.94 6.11-6.9l-1.58 7.46c0 2.87 1.05 5.13 3.17 6.78 2.11 1.66 5.35 2.49 9.72 2.49 4.22 0 7.27-0.6 9.16-1.81 1.88-1.21 3.05-2.86 3.51-4.98 0.45-2.11 0.68-4.44 0.68-7.01v-82.77c-0.01-2.72-0.23-5.17-0.69-7.36zm-30.64 63.33c-2.49 4.45-5.77 7.95-9.84 10.52s-8.67 3.84-13.8 3.84c-5.58 0-10.59-1.28-15.04-3.84s-7.95-6.03-10.52-10.4-3.84-9.27-3.84-14.7c0-5.58 1.24-10.59 3.73-15.04s5.91-7.99 10.29-10.63c4.37-2.64 9.35-3.96 14.93-3.96 5.12 0 9.76 1.24 13.91 3.73 4.14 2.49 7.5 5.92 10.06 10.29s3.84 9.5 3.84 15.38c0.01 5.42-1.23 10.36-3.72 14.81z"/>
			</g>
		</g>
	</g>
</switch>

</svg>
