<?xml version="1.0" encoding="UTF-8" standalone="no"?>
<svg
   version="1.0"
   width="198.96797pt"
   height="125.17839pt"
   viewBox="0 0 198.96797 125.17839"
   preserveAspectRatio="xMidYMid"
   id="svg6"
   sodipodi:docname="nautilus.svg"
   inkscape:version="1.4.3 (0d15f75, 2025-12-25)"
   xmlns:inkscape="http://www.inkscape.org/namespaces/inkscape"
   xmlns:sodipodi="http://sodipodi.sourceforge.net/DTD/sodipodi-0.dtd"
   xmlns="http://www.w3.org/2000/svg"
   xmlns:svg="http://www.w3.org/2000/svg">
  <defs
     id="defs6" />
  <sodipodi:namedview
     id="namedview6"
     pagecolor="#ffffff"
     bordercolor="#000000"
     borderopacity="0.25"
     inkscape:showpageshadow="2"
     inkscape:pageopacity="0.0"
     inkscape:pagecheckerboard="true"
     inkscape:deskcolor="#d1d1d1"
     inkscape:document-units="pt"
     showguides="true"
     inkscape:lockguides="false"
     inkscape:zoom="1.3683804"
     inkscape:cx="473.18713"
     inkscape:cy="345.29872"
     inkscape:window-width="1868"
     inkscape:window-height="1218"
     inkscape:window-x="3042"
     inkscape:window-y="80"
     inkscape:window-maximized="0"
     inkscape:current-layer="layer1" />
  <g
     inkscape:groupmode="layer"
     id="layer1"
     inkscape:label="Layer 1"
     transform="translate(-159.97766,-246.20294)">
    <path
       id="path32"
       style="display:inline;fill:#000000;stroke:#fdfdfd;stroke-width:7.7162;stroke-linecap:round;stroke-linejoin:round;stroke-dasharray:none;stroke-opacity:1"
       d="m 308.78511,250.06591 c -1.75097,-0.0268 -3.51756,0.0569 -5.29362,0.25361 -7.35417,0.80075 -14.87485,3.72784 -21.08663,8.22861 -3.30818,2.40225 -7.37801,6.21276 -9.09161,8.47695 -1.04719,1.43583 -1.23764,1.84993 -1.23764,2.81635 0,1.15971 0.42842,1.68423 1.33282,1.68423 0.2142,0 1.59455,-1.35307 3.04634,-2.98218 2.85599,-3.23061 4.71259,-4.91468 6.64039,-6.07439 1.85639,-1.10448 3.99817,-1.0495 6.21156,0.16543 3.99838,2.18135 7.99679,7.4555 10.25778,13.50254 1.071,2.89927 1.99945,6.65435 2.16605,8.94615 0.0922,1.01647 0.22884,1.85144 0.3455,1.90264 8.2e-4,5.5e-4 0.002,8.2e-4 0.003,10e-4 0.003,8.2e-4 0.006,10e-4 0.009,10e-4 h 0.003 c 0.005,-5.5e-4 0.0101,-0.003 0.0157,-0.006 0.28039,-0.16646 1.5377,-3.73963 1.93281,-5.65414 1.4518,-6.76495 0.88064,-13.66797 -1.61834,-19.4665 -0.9996,-2.31941 -2.71305,-4.94267 -3.78405,-5.77103 -0.476,-0.35895 -0.85694,-0.74542 -0.85694,-0.85586 0,-0.74553 5.85499,-1.65673 10.56737,-1.65673 3.40339,0 5.18831,1.49092 7.0685,5.93646 0.5236,1.21493 1.21368,3.45151 1.54688,4.97017 0.5474,2.42986 0.61882,3.31331 0.61882,7.179 0,3.78285 -0.0712,4.83225 -0.59476,7.31733 -0.6188,2.9821 -1.64224,6.07447 -2.66564,8.22821 -0.3332,0.6903 -0.59512,1.27023 -0.59512,1.32545 0,0.0285 0.0241,0.0367 0.069,0.0267 0.015,-0.003 0.0321,-0.009 0.0516,-0.0158 0.54601,-0.20272 2.81873,-1.90927 4.23483,-3.21394 5.80717,-5.43958 9.52001,-14.74476 8.73461,-21.86867 -0.119,-1.15971 -0.42849,-2.84405 -0.69029,-3.72763 -0.2618,-0.88359 -0.4284,-1.65651 -0.357,-1.71173 0.1666,-0.2209 4.42692,2.37453 6.21191,3.75513 0.952,0.74553 2.73671,2.31947 3.99811,3.50679 2.57039,2.45747 2.66561,2.67834 2.40381,6.32313 -0.71399,9.63661 -5.47381,18.6105 -12.80418,24.13291 -1.3328,0.99404 -2.95135,2.09852 -3.61775,2.48509 l -1.21359,0.69043 3.68887,-0.16583 c 3.99839,-0.16567 5.64072,-0.49718 9.06791,-1.82256 4.95038,-1.90523 9.44856,-4.96995 12.85195,-8.7528 1.97539,-2.20897 2.07042,-2.26417 2.45122,-1.76715 0.9996,1.29777 2.76081,8.42146 2.76081,11.2379 0,1.79478 -0.57129,3.00984 -2.47528,5.24642 -3.76038,4.39032 -10.23386,7.9245 -16.44564,8.94614 -2.90359,0.49702 -8.82988,0.44212 -10.94807,-0.0825 -0.9044,-0.24851 -1.71334,-0.38659 -1.76094,-0.30376 -0.1666,0.16568 1.88017,2.26408 3.66516,3.75514 6.52118,5.41196 15.56493,7.67607 24.4185,6.12979 0.99959,-0.16567 1.1426,-0.11045 1.2854,0.41418 0.5474,1.98807 -4.37921,13.08817 -6.3308,14.27549 -0.99959,0.57985 -4.23647,0.80075 -6.75926,0.41418 -8.16337,-1.24254 -15.92219,-5.79861 -22.65756,-13.33671 l -1.49946,-1.65672 v 0.96629 c 0,0.52463 0.14289,1.878 0.33329,3.01009 1.54699,9.3881 7.23526,18.16836 14.97023,23.08331 0.99959,0.63507 1.88024,1.29811 1.95164,1.46379 0.3332,0.57985 -1.02363,1.73942 -4.04622,3.45137 -3.28438,1.85001 -7.02099,3.42387 -8.11579,3.42387 -1.33279,0 -3.21296,-1.43597 -5.80715,-4.41807 -2.87979,-3.34106 -4.49807,-5.93638 -6.18786,-9.99535 -1.83259,-4.41793 -2.40377,-7.06882 -2.59417,-11.87332 l -0.14293,-4.05889 -1.35653,2.12591 c -5.52158,8.58735 -6.47339,19.30121 -2.5464,28.27513 1.18999,2.7612 1.21351,3.42371 0.0711,3.67221 -1.0948,0.2209 -4.71236,-0.083 -6.87815,-0.58001 -3.59379,-0.85598 -5.1405,-2.37458 -6.1401,-6.01937 -0.4284,-1.62912 -0.52364,-2.59557 -0.52364,-5.68812 0.0238,-5.55002 0.95188,-9.22213 3.68887,-14.46842 2.61798,-4.99778 6.21193,-9.195 10.40072,-12.06666 4.75998,-3.25822 8.04434,-7.20672 9.02014,-10.87912 1.33279,-4.99779 0.0714,-9.25004 -3.30817,-11.18289 -2.11819,-1.21493 -4.16503,-1.24251 -7.30661,-0.11042 -0.5117,0.17948 -0.92846,0.31921 -1.3126,0.42793 -1.15244,0.32617 -2.01356,0.37293 -4.2805,0.37293 -2.85599,0 -3.68887,-0.11066 -5.83086,-0.77335 -8.63936,-2.62315 -15.49376,-9.82976 -17.39775,-18.36189 -0.3808,-1.68433 -0.47607,-2.84423 -0.42847,-5.43976 0.0476,-1.8224 0,-3.58951 -0.11888,-3.94847 -0.2142,-0.74553 -1.49949,-1.54631 -3.18928,-1.96049 -4.49818,-1.10448 -9.61526,0.93892 -16.39823,6.5994 -2.023,1.65672 -4.61702,4.14194 -10.3052,9.80241 -13.18515,13.11573 -19.03997,17.36772 -28.36953,20.57071 -2.64179,0.9112 -3.16536,1.29796 -2.95116,2.12632 0.19039,0.71792 2.47495,2.65062 4.52174,3.86556 3.99839,2.34702 11.54298,4.50065 17.39776,4.99767 2.92738,0.24851 9.02019,0.0554 11.68577,-0.35877 1.7136,-0.27612 4.83152,-0.93881 5.85492,-1.24254 0.8568,-0.27612 0.88062,-0.33129 0.61882,-1.0492 -0.1666,-0.41418 -0.28553,-2.20916 -0.28553,-4.19723 0,-2.87165 0.0949,-3.75518 0.5233,-5.19101 1.35659,-4.41793 4.18887,-8.06269 7.83026,-10.05076 2.07059,-1.1321 3.87957,-1.57381 6.37856,-1.57381 4.75998,-0.0276 8.16313,1.73967 13.44671,7.01357 5.30738,5.24629 7.87789,6.958 12.73307,8.44905 1.49939,0.44179 2.8083,0.5801 6.09268,0.66293 4.73618,0.11045 5.80718,0.41418 6.06898,1.65673 0.357,1.68433 -1.07102,3.45142 -4.54581,5.71561 -1.04719,0.6903 -5.33094,3.23075 -9.51973,5.66061 -11.37635,6.57167 -16.63613,10.02296 -22.8479,14.96552 -3.04639,2.42986 -8.6872,7.42748 -8.6872,7.7036 0,0.27612 4.4983,4.11455 7.02108,6.01978 2.78459,2.09852 8.66329,5.52217 11.66208,6.79232 7.73496,3.31345 15.66033,4.97036 23.9189,5.02559 6.68777,0.0552 11.35232,-0.52493 17.0167,-2.09882 24.3235,-6.70973 40.19818,-27.74993 41.19777,-54.61646 0.5712,-15.40753 -4.37923,-30.26279 -13.73259,-41.11433 -8.76729,-10.17159 -20.26776,-15.77697 -32.52452,-15.96497 z m -32.16578,23.5173 c -0.51198,0.0149 -1.01245,0.065 -1.49737,0.15128 -1.4756,0.27612 -2.76079,0.9113 -3.21299,1.62922 -0.4046,0.63507 -0.38073,3.64493 0.0715,5.6606 1.52319,6.90302 7.37806,12.9774 14.61323,15.18637 2.26099,0.6903 6.78314,0.91141 7.90173,0.35917 1.3328,-0.66269 1.71339,-1.51866 1.57058,-3.72763 -0.30939,-4.72166 -3.95071,-11.37619 -8.13949,-14.80009 -3.56106,-2.94759 -7.72333,-4.56348 -11.30716,-4.45892 z m -14.42045,25.08505 c -1.28519,-0.0276 -2.59435,0.0829 -3.26075,0.30376 -3.40338,1.13209 -6.02132,4.14167 -6.97332,8.00736 -0.5474,2.15374 -0.3808,5.49504 0.357,7.70401 0.714,2.18135 2.97494,4.99773 4.83133,6.01937 1.97539,1.07687 4.23646,1.46328 6.14045,1.07671 4.02218,-0.80075 7.2112,-4.08645 8.1632,-8.42154 1.2852,-5.7157 -0.92799,-11.23819 -5.49757,-13.75089 -1.38039,-0.74552 -1.92774,-0.88356 -3.76034,-0.93878 z m 2.91247,3.81054 c 0.59797,0.0138 1.19304,0.17956 1.63334,0.4971 1.071,0.74553 1.66585,2.65049 1.28505,4.00348 -0.57119,2.01568 -2.49894,3.06499 -4.11733,2.26424 -2.18959,-1.04926 -2.47517,-5.08048 -0.45218,-6.35063 0.4522,-0.28993 1.05315,-0.42799 1.65112,-0.41419 z m -76.98061,6.9614 c -1.43134,0.006 -2.82356,0.11403 -4.16231,0.32803 -6.68777,1.07687 -13.18496,4.50076 -17.18334,9.11197 -1.4042,1.62911 -3.16546,4.00389 -2.92746,4.00389 0.0714,0 0.80906,-0.49686 1.64206,-1.07671 6.64017,-4.69405 12.56632,-6.59936 19.37309,-6.29563 5.33118,0.24851 10.11517,1.73929 19.49233,6.07438 10.25776,4.74928 19.01587,6.7374 26.39384,5.99187 3.26059,-0.33134 5.47426,-0.77286 7.42585,-1.51839 1.7612,-0.6903 4.40285,-2.23685 5.21204,-3.0376 0.32558,-0.33328 0.51237,-0.55974 0.49855,-0.59215 l -2.8e-4,-2.7e-4 -2.7e-4,-5.5e-4 -2.8e-4,-5.5e-4 -2.7e-4,-5.5e-4 h -2.8e-4 c -0.005,-0.005 -0.0201,0 -0.0446,0.0142 -0.6664,0.35896 -4.0934,1.04934 -6.83039,1.32546 -3.47479,0.35896 -7.49699,0.055 -11.32878,-0.88377 -3.23678,-0.80075 -8.80615,-3.00961 -12.44753,-4.99768 -7.75877,-4.16942 -8.97236,-4.77699 -11.56655,-5.77102 -4.60528,-1.78098 -9.251,-2.69202 -13.54503,-2.6752 z m 69.61751,2.39893 c 0.238,0 0.66617,0.24878 0.95177,0.55251 0.2856,0.33135 0.52364,0.82809 0.52364,1.10421 0,0.71792 -0.80919,1.65672 -1.42799,1.65672 -0.2618,0 -0.68996,-0.24837 -0.95176,-0.5521 -0.2618,-0.30373 -0.47624,-0.80088 -0.47624,-1.10462 0,-0.6903 0.80939,-1.65672 1.38058,-1.65672 z m -5.94695,13.55633 c 0.73759,-1.09327 -0.002,5.5e-4 -0.003,10e-4 -0.0476,0 -1.18981,0.74563 -2.5464,1.62922 -2.1896,1.43583 -4.97423,2.89935 -8.02062,4.22473 -4.16498,1.82239 -10.44825,3.14783 -18.54022,3.92096 -7.25897,0.69031 -10.87644,1.57381 -15.11282,3.64472 -3.40339,1.68433 -6.14038,3.81035 -9.63896,7.48275 -5.11698,5.38435 -10.06748,7.97978 -15.94606,8.31113 l -2.85598,0.16583 0.95211,0.58002 c 4.11738,2.56792 10.90035,2.70579 17.13593,0.35876 3.11779,-1.18732 6.73521,-3.34122 9.2342,-5.55018 1.21379,-1.04926 3.26061,-2.84377 4.5458,-4.00348 3.71279,-3.23061 7.94922,-5.41186 13.0186,-6.6544 2.35619,-0.57985 5.68827,-1.04937 5.68827,-0.80086 0,0.11045 -0.71405,0.63489 -1.59464,1.18713 -3.28439,2.09852 -5.92627,4.14211 -7.47327,5.82644 -6.14037,6.73735 -4.26004,15.90425 4.06993,19.85278 4.54578,2.15374 11.89972,2.37471 15.9457,0.4971 l 1.04729,-0.4971 -1.95163,-0.4971 c -2.3562,-0.60746 -3.18908,-1.04918 -4.40287,-2.40217 -1.2138,-1.32538 -1.59464,-2.20875 -1.59464,-3.78263 0,-3.61719 2.71307,-6.8201 11.18584,-13.17088 5.54537,-4.16942 9.04408,-7.31722 11.30507,-10.2441 1.54699,-1.98806 3.14168,-4.5839 2.83228,-4.5839 -0.0714,0 -0.76157,0.58005 -1.52317,1.29796 -2.02299,1.93285 -5.64079,4.47316 -10.56737,7.45526 -5.56918,3.39628 -8.42495,5.3292 -10.49555,7.12399 -6.44977,5.60525 -8.18723,11.98366 -4.35545,16.04263 0.5712,0.60747 1.26147,1.26981 1.49946,1.43548 0.3082,0.19803 0.4303,0.33144 0.41244,0.40933 -2.8e-4,0.002 -8.3e-4,0.003 -0.001,0.005 -0.0934,0.30286 -2.41197,-0.27949 -4.00508,-1.15963 -2.64179,-1.43582 -4.09349,-3.67229 -4.30769,-6.65439 -0.49979,-6.24033 4.83131,-13.80617 14.20848,-20.15694 6.25937,-4.25226 10.25783,-7.86912 11.49542,-10.43704 0.21941,-0.45818 0.37815,-0.82296 0.36432,-0.85546 l -2.7e-4,-5.5e-4 -2.8e-4,-5.5e-4 v -5.5e-4 h -2.7e-4 l -2.8e-4,-5.5e-4 h -2.7e-4 l -2.8e-4,-2.7e-4 h -2.7e-4 -2.8e-4 -2.7e-4 -2.8e-4 c 0.0406,0 0.72028,0 0.71999,0 z m -53.0352,0.97114 c -2.6061,-0.1208 -5.17044,-0.0862 -6.89593,0.13469 -9.47237,1.24255 -18.44509,6.68218 -22.89568,13.86131 l -0.47588,0.77295 1.40429,-0.74544 c 7.56837,-4.00375 12.06641,-5.60512 18.77799,-6.76482 3.09398,-0.52463 4.33155,-0.60744 9.73413,-0.5246 15.46994,0.19328 18.70685,0.13784 20.94404,-0.35918 2.26099,-0.52463 8.32973,-2.76131 7.73473,-2.87176 -0.1904,-0.0276 -2.37976,-0.1102 -4.87875,-0.16543 -4.64098,-0.13806 -4.95049,-0.19347 -16.30305,-2.5405 -1.89209,-0.40037 -4.53981,-0.67641 -7.14589,-0.79722 z"
       sodipodi:nodetypes="scccsscccccssscccscssccsccsssccscccccccccccscccccccccccsccccscccccccccccccccssccccccccccscccsccccccccccscccccsssscccscccscccccccccsccccscccscccccccccccccccccccscsssssccccccccccccccscccccccsccscccccsccccccccccccccccsccsccccccccccs" />
    <path
       style="fill:#ffffff;fill-opacity:1;stroke:#fdfdfd;stroke-width:4.69784;stroke-dasharray:none;stroke-opacity:1"
       id="path44"
       sodipodi:type="arc"
       sodipodi:cx="306.08716"
       sodipodi:cy="306.28525"
       sodipodi:rx="46.960693"
       sodipodi:ry="54.03421"
       sodipodi:start="0"
       sodipodi:end="6.2786838"
       sodipodi:arc-type="slice"
       d="m 353.04785,306.28525 a 46.960693,54.03421 0 0 1 -46.90784,54.03417 46.960693,54.03421 0 0 1 -47.01343,-53.91255 46.960693,54.03421 0 0 1 46.80203,-54.15552 46.960693,54.03421 0 0 1 47.11877,53.79066 l -46.96022,0.24324 z" />
    <path
       style="fill:#ffffff;fill-opacity:1;stroke:#fdfdfd;stroke-width:2.58916;stroke-dasharray:none;stroke-opacity:1"
       id="path45"
       sodipodi:type="arc"
       sodipodi:cx="259.65073"
       sodipodi:cy="307.38571"
       sodipodi:rx="25.574106"
       sodipodi:ry="24.044855"
       sodipodi:start="0"
       sodipodi:end="6.2786838"
       sodipodi:arc-type="slice"
       d="m 285.22483,307.38571 a 25.574106,24.044855 0 0 1 -25.54532,24.04484 25.574106,24.044855 0 0 1 -25.60283,-23.99072 25.574106,24.044855 0 0 1 25.4877,-24.09884 25.574106,24.044855 0 0 1 25.66019,23.93648 l -25.57384,0.10824 z" />
    <path
       style="fill:#ffffff;fill-opacity:1;stroke:#fdfdfd;stroke-width:3.63518;stroke-dasharray:none;stroke-opacity:1"
       id="path46"
       sodipodi:type="arc"
       sodipodi:cx="205.81136"
       sodipodi:cy="309.49692"
       sodipodi:rx="27.367064"
       sodipodi:ry="14.011411"
       sodipodi:start="0"
       sodipodi:end="6.2786838"
       sodipodi:arc-type="slice"
       d="m 233.17842,309.49692 a 27.367064,14.011411 0 0 1 -27.33627,14.0114 27.367064,14.011411 0 0 1 -27.39779,-13.97987 27.367064,14.011411 0 0 1 27.2746,-14.04286 27.367064,14.011411 0 0 1 27.45918,13.94826 l -27.36678,0.0631 z"
       transform="matrix(0.99981491,0.01923913,0.14027853,0.99011208,0,0)" />
    <path
       style="fill:#ffffff;fill-opacity:1;stroke:#fdfdfd;stroke-width:3.61284;stroke-dasharray:none;stroke-opacity:1"
       id="path47"
       sodipodi:type="arc"
       sodipodi:cx="-39.207214"
       sodipodi:cy="427.10211"
       sodipodi:rx="29.21834"
       sodipodi:ry="12.962656"
       sodipodi:start="0"
       sodipodi:end="6.2786838"
       sodipodi:arc-type="slice"
       d="m -9.9888744,427.10211 a 29.21834,12.962656 0 0 1 -29.1854586,12.96265 29.21834,12.962656 0 0 1 -29.251147,-12.93347 29.21834,12.962656 0 0 1 29.119621,-12.99176 29.21834,12.962656 0 0 1 29.3166885,12.90423 l -29.2180435,0.0583 z"
       transform="matrix(0.7227279,-0.69113268,0.71383778,0.7003111,0,0)" />
  </g>
  <g
     inkscape:groupmode="layer"
     id="layer2"
     inkscape:label="Layer 2"
     transform="translate(-65.212487,0.0106103)">
    <path
       d="m 208.72643,4.1060459 c -7.35417,0.8007498 -14.87494,3.7276281 -21.08671,8.2283941 -3.30819,2.402249 -7.37797,6.212713 -9.09157,8.476902 -1.04719,1.435827 -1.23759,1.850008 -1.23759,2.81643 0,1.159706 0.4284,1.684335 1.33279,1.684335 0.2142,0 1.5946,-1.352991 3.04639,-2.982102 2.85599,-3.230611 4.71238,-4.914947 6.64017,-6.074653 1.8564,-1.104482 3.99839,-1.049258 6.21178,0.165672 3.99838,2.181353 7.99677,7.455256 10.25776,13.502296 1.07099,2.899266 1.99919,6.654508 2.16579,8.946307 0.0952,1.04926 0.238,1.905233 0.357,1.905233 0.238,0 1.54699,-3.700015 1.95159,-5.660472 1.45179,-6.764954 0.8806,-13.667969 -1.61839,-19.466501 -0.9996,-2.319413 -2.71319,-4.942559 -3.78419,-5.7709206 -0.476,-0.3589567 -0.85679,-0.7455258 -0.85679,-0.8559739 0,-0.7455257 5.85477,-1.6567236 10.56715,-1.6567236 3.40339,0 5.18838,1.4910511 7.06858,5.9365931 0.52359,1.21493 1.21379,3.451507 1.54699,4.97017 0.5474,2.429861 0.6188,3.313447 0.6188,7.179135 0,3.782852 -0.0714,4.832112 -0.595,7.317195 -0.6188,2.982102 -1.64219,6.074653 -2.66559,8.228394 -0.3332,0.690301 -0.595,1.270156 -0.595,1.32538 0,0.303733 2.73699,-1.711948 4.35538,-3.202998 5.80718,-5.439576 9.51997,-14.744841 8.73457,-21.868752 -0.119,-1.159706 -0.4284,-2.844042 -0.6902,-3.727628 -0.2618,-0.883586 -0.4284,-1.656724 -0.35699,-1.711948 0.16659,-0.220896 4.42678,2.374637 6.21177,3.75524 0.952,0.745526 2.73699,2.319413 3.99838,3.506732 2.57039,2.457473 2.66559,2.67837 2.40379,6.323161 -0.71399,9.636608 -5.47398,18.610528 -12.80435,24.13294 -1.33279,0.994033 -2.95118,2.098517 -3.61758,2.485085 l -1.2138,0.690301 3.68899,-0.165672 c 3.99838,-0.165672 5.64058,-0.497017 9.06776,-1.822397 4.95038,-1.90523 9.44857,-4.970169 12.85195,-8.75302 1.97539,-2.208965 2.07059,-2.264189 2.45139,-1.767173 0.9996,1.297766 2.76079,8.421679 2.76079,11.238109 0,1.794782 -0.5712,3.009714 -2.47519,5.246289 -3.76038,4.390319 -10.23396,7.924662 -16.44573,8.94631 -2.90359,0.497016 -8.82977,0.441792 -10.94796,-0.08284 -0.9044,-0.248509 -1.71359,-0.386569 -1.76119,-0.303733 -0.1666,0.165673 1.88019,2.26419 3.66518,3.755242 6.52118,5.411962 15.56514,7.676151 24.41871,6.129877 0.99959,-0.165672 1.14239,-0.110448 1.28519,0.414181 0.5474,1.988069 -4.37918,13.088114 -6.33077,14.275435 -0.9996,0.579852 -4.23639,0.800749 -6.75918,0.41418 -8.16337,-1.242544 -15.92213,-5.798532 -22.65751,-13.336626 L 217.2944,75.23471 v 0.966421 c 0,0.524629 0.1428,1.877622 0.3332,3.009715 1.54699,9.388099 7.23517,18.168734 14.97014,23.083684 0.99959,0.63507 1.88019,1.29776 1.95159,1.46344 0.3332,0.57985 -1.0234,1.73956 -4.04598,3.45151 -3.28439,1.85 -7.02098,3.42389 -8.11577,3.42389 -1.3328,0 -3.21299,-1.43583 -5.80718,-4.41793 -2.87979,-3.34106 -4.49818,-5.93659 -6.18797,-9.995565 -1.8326,-4.417931 -2.40379,-7.068689 -2.59419,-11.873185 l -0.1428,-4.058975 -1.3566,2.126129 c -5.52157,8.587351 -6.47357,19.300826 -2.54659,28.274746 1.19,2.76121 1.2138,3.4239 0.0714,3.67241 -1.09479,0.22089 -4.71238,-0.0828 -6.87817,-0.57986 -3.59378,-0.85597 -5.14078,-2.37463 -6.14038,-6.01942 -0.42839,-1.62912 -0.52359,-2.59554 -0.52359,-5.68809 0.0238,-5.550023 0.95199,-9.222426 3.68898,-14.468718 2.61799,-4.997783 6.21178,-9.194815 10.40056,-12.066469 4.75998,-3.258223 8.04437,-7.206749 9.02016,-10.879152 1.3328,-4.997784 0.0714,-9.25004 -3.30818,-11.182885 -2.11819,-1.214929 -4.16499,-1.242541 -7.30657,-0.110448 -2.0468,0.717916 -2.57039,0.800752 -5.59298,0.800752 -2.85599,0 -3.68899,-0.110448 -5.83098,-0.77314 -8.63936,-2.623146 -15.49374,-9.829892 -17.39773,-18.362019 -0.3808,-1.684334 -0.476,-2.844042 -0.4284,-5.439576 0.0476,-1.822394 0,-3.589566 -0.119,-3.948523 -0.2142,-0.745526 -1.49939,-1.546275 -3.18918,-1.960456 -4.49818,-1.104483 -9.61517,0.93881 -16.39814,6.599283 -2.02299,1.656722 -4.61718,4.141808 -10.30536,9.80228 -13.18514,13.115727 -19.03992,17.367985 -28.36948,20.570984 -2.64179,0.911197 -3.16539,1.297766 -2.95119,2.126129 0.1904,0.717913 2.47519,2.650756 4.52198,3.865688 3.99838,2.347025 11.54295,4.500764 17.39773,4.997783 2.92739,0.248509 9.02017,0.05522 11.68575,-0.358959 1.7136,-0.27612 4.83138,-0.938809 5.85478,-1.242541 0.8568,-0.276121 0.8806,-0.331345 0.6188,-1.049258 -0.1666,-0.414183 -0.2856,-2.208965 -0.2856,-4.197034 0,-2.871654 0.0952,-3.755239 0.5236,-5.191068 1.35659,-4.417928 4.18878,-8.062719 7.83017,-10.050788 2.07059,-1.132094 3.87938,-1.573886 6.37837,-1.573886 4.75998,-0.02761 8.16337,1.739558 13.44695,7.013462 5.30738,5.246292 7.87776,6.958238 12.73295,8.44929 1.49939,0.441793 2.80839,0.579853 6.09277,0.662689 4.73618,0.110448 5.80718,0.41418 6.06898,1.656725 0.357,1.684334 -1.071,3.451507 -4.54578,5.715693 -1.0472,0.690304 -5.33118,3.230614 -9.51997,5.660473 -11.37635,6.571672 -16.63613,10.023179 -22.84791,14.965735 -3.04638,2.429862 -8.68696,7.427646 -8.68696,7.703766 0,0.276118 4.49818,4.114198 7.02097,6.019428 2.78459,2.09852 8.66317,5.52241 11.66195,6.79257 7.73497,3.31344 15.66034,4.97017 23.91891,5.02539 6.68777,0.0552 11.35255,-0.52463 17.01693,-2.09852 24.3235,-6.70972 40.19804,-27.750114 41.19764,-54.616647 C 260.84822,45.524135 255.89784,30.668847 246.54448,19.817307 236.52472,8.1926307 222.93498,2.5321587 208.72643,4.1060459 Z"
       id="path1"
       style="fill:#d45500;stroke:none;stroke-width:0.0256352" />
    <path
       d="m 180.35695,27.521073 c -1.4756,0.27612 -2.76079,0.911197 -3.21299,1.62911 -0.4046,0.635077 -0.3808,3.644791 0.0714,5.660472 1.52319,6.903014 7.37797,12.977667 14.61314,15.186632 2.26099,0.690301 6.78297,0.9112 7.90157,0.358957 1.33279,-0.662689 1.71359,-1.518662 1.57079,-3.727628 -0.3094,-4.721663 -3.95078,-11.376168 -8.13956,-14.800063 -4.06979,-3.368671 -8.92497,-4.997783 -12.80435,-4.30748 z"
       id="path2"
       style="fill:#d45500;stroke:none;stroke-width:0.0256352" />
    <path
       d="m 164.09213,52.80538 c -3.92966,1.126685 -6.95247,4.122019 -8.05168,7.969237 -0.63204,2.14345 -0.43968,5.468546 0.4122,7.666956 0.82441,2.17093 3.43502,4.973903 5.57847,5.990668 2.28085,1.071725 4.89146,1.456447 7.08987,1.071725 4.64414,-0.796924 8.32648,-4.067059 9.42569,-8.381439 1.48392,-5.688387 -1.07173,-11.184412 -6.34791,-13.685104 -1.59385,-0.741964 -2.22589,-0.879364 -4.34186,-0.934325 -1.48393,-0.02748 -2.99534,0.08244 -3.76478,0.302282 z m 9.01348,3.984619 c 1.23661,0.741963 1.92361,2.638092 1.48393,3.984618 -0.65952,2.00605 -2.88542,3.050294 -4.75406,2.253371 -2.52818,-1.044245 -2.85794,-5.056344 -0.52213,-6.32043 1.04425,-0.577083 2.7755,-0.549602 3.79226,0.08244 z m -9.28828,9.370723 c 0.32976,0.329762 0.60456,0.824404 0.60456,1.099206 0,0.714483 -0.93432,1.648807 -1.64881,1.648807 -0.30228,0 -0.79692,-0.247321 -1.0992,-0.549602 -0.30228,-0.302282 -0.5496,-0.796924 -0.5496,-1.099205 0,-0.687004 0.93432,-1.648808 1.59384,-1.648808 0.2748,0 0.76945,0.247321 1.09921,0.549602 z"
       id="path3"
       style="fill:#000000;stroke:none;stroke-width:0.0274801" />
    <path
       d="m 89.20331,63.554809 c -6.687773,1.07687 -13.185147,4.500764 -17.183531,9.111979 -1.404195,1.62911 -3.165388,4.003748 -2.927389,4.003748 0.0714,0 0.809197,-0.497017 1.642194,-1.076869 6.640174,-4.694051 12.566349,-6.599282 19.373122,-6.295549 5.331178,0.248508 10.114964,1.739558 19.492124,6.074653 10.25776,4.749272 19.01612,6.737341 26.39409,5.991816 3.26059,-0.331344 5.47398,-0.773137 7.42557,-1.518664 1.7612,-0.690301 4.40299,-2.236575 5.21218,-3.037327 0.4046,-0.41418 0.595,-0.662689 0.4522,-0.579852 -0.6664,0.358956 -4.09358,1.049257 -6.83057,1.32538 -3.47479,0.358956 -7.49697,0.05522 -11.32876,-0.883588 -3.23678,-0.800749 -8.80596,-3.009714 -12.44735,-4.997781 -7.75877,-4.169422 -8.97256,-4.776887 -11.56675,-5.77092 -6.14038,-2.374638 -12.352151,-3.202999 -17.70713,-2.347026 z"
       id="path4"
       style="fill:#d45500;stroke:none;stroke-width:0.0256352" />
    <path
       d="m 154.48645,80.812347 c -2.18959,1.435825 -4.97418,2.899266 -8.02057,4.224643 -4.16498,1.822397 -10.44816,3.147775 -18.54013,3.920912 -7.25896,0.690303 -10.87655,1.573888 -15.11293,3.644794 -3.40339,1.684334 -6.14038,3.810463 -9.63897,7.482864 -5.116976,5.38435 -10.067356,7.97989 -15.945932,8.31123 l -2.855988,0.16567 0.951997,0.57986 c 4.11738,2.56792 10.900355,2.70598 17.135933,0.35895 3.11778,-1.18731 6.73537,-3.34105 9.23436,-5.55002 1.2138,-1.04926 3.26059,-2.84404 4.54578,-4.003748 3.71279,-3.230611 7.94917,-5.411964 13.01855,-6.654505 2.35619,-0.579853 5.68818,-1.04926 5.68818,-0.800749 0,0.110448 -0.714,0.635076 -1.5946,1.187317 -3.28438,2.098517 -5.92617,4.141808 -7.47317,5.826145 -6.14037,6.73734 -4.26018,15.90454 4.06979,19.85307 4.54578,2.15374 11.89995,2.37464 15.94593,0.49702 l 1.0472,-0.49702 -1.95159,-0.49702 c -2.35619,-0.60746 -3.18919,-1.04926 -4.40299,-2.40225 -1.21379,-1.32538 -1.59459,-2.20896 -1.59459,-3.78285 0,-3.61718 2.71319,-6.82018 11.18596,-13.17095 5.54538,-4.16942 9.04396,-7.317198 11.30495,-10.244076 1.547,-1.988066 3.14159,-4.5836 2.83219,-4.5836 -0.0714,0 -0.7616,0.579853 -1.52319,1.297766 -2.02299,1.932845 -5.64058,4.473154 -10.56716,7.455257 -5.56918,3.396283 -8.42517,5.329128 -10.49576,7.123913 -6.44977,5.60525 -8.18717,11.98363 -4.35538,16.0426 0.5712,0.60747 1.26139,1.27016 1.49939,1.43583 1.547,0.99404 -1.59459,0.35896 -3.59378,-0.74552 -2.64179,-1.43583 -4.09359,-3.67241 -4.30779,-6.65451 -0.49979,-6.24033 4.83138,-13.80603 14.20855,-20.156804 6.25937,-4.252258 10.25775,-7.869437 11.49535,-10.437359 0.238,-0.497017 0.4046,-0.883585 0.357,-0.855973 -0.0476,0 -1.19,0.745525 -2.54659,1.629113 z"
       id="path5"
       style="fill:#d45500;stroke:none;stroke-width:0.0256352" />
    <path
       d="M 97.104878,80.287715 C 87.632516,81.530259 78.659952,86.969835 74.20937,94.14897 l -0.475998,0.773137 1.404193,-0.745525 c 7.568371,-4.003748 12.066552,-5.605249 18.778126,-6.764954 3.093987,-0.524629 4.331582,-0.607465 9.734159,-0.524629 15.46994,0.193285 18.70673,0.138061 20.94392,-0.358956 2.26099,-0.524631 8.32997,-2.761206 7.73497,-2.871654 -0.1904,-0.02761 -2.37999,-0.110448 -4.87898,-0.165672 -4.64098,-0.138063 -4.95038,-0.193287 -16.30294,-2.54031 -3.78418,-0.800752 -10.59095,-1.104484 -14.041942,-0.662692 z"
       id="path6"
       style="fill:#d45500;stroke:none;stroke-width:0.0256352" />
    <path
       d="m 208.72643,4.1060459 c -7.35417,0.8007498 -14.87494,3.7276281 -21.08671,8.2283941 -3.30819,2.402249 -7.37797,6.212713 -9.09157,8.476902 -1.04719,1.435827 -1.23759,1.850008 -1.23759,2.81643 0,1.159706 0.4284,1.684335 1.33279,1.684335 0.2142,0 1.5946,-1.352991 3.04639,-2.982102 2.85599,-3.230611 4.71238,-4.914947 6.64017,-6.074653 1.8564,-1.104482 3.99839,-1.049258 6.21178,0.165672 3.99838,2.181353 7.99677,7.455256 10.25776,13.502296 1.07099,2.899266 1.99919,6.654508 2.16579,8.946307 0.0952,1.04926 0.238,1.905233 0.357,1.905233 0.238,0 1.54699,-3.700015 1.95159,-5.660472 1.45179,-6.764954 0.8806,-13.667969 -1.61839,-19.466501 -0.9996,-2.319413 -2.71319,-4.942559 -3.78419,-5.7709206 -0.476,-0.3589567 -0.85679,-0.7455258 -0.85679,-0.8559739 0,-0.7455257 5.85477,-1.6567236 10.56715,-1.6567236 3.40339,0 5.18838,1.4910511 7.06858,5.9365931 0.52359,1.21493 1.21379,3.451507 1.54699,4.97017 0.5474,2.429861 0.6188,3.313447 0.6188,7.179135 0,3.782852 -0.0714,4.832112 -0.595,7.317195 -0.6188,2.982102 -1.64219,6.074653 -2.66559,8.228394 -0.3332,0.690301 -0.595,1.270156 -0.595,1.32538 0,0.303733 2.73699,-1.711948 4.35538,-3.202998 5.80718,-5.439576 9.51997,-14.744841 8.73457,-21.868752 -0.119,-1.159706 -0.4284,-2.844042 -0.6902,-3.727628 -0.2618,-0.883586 -0.4284,-1.656724 -0.35699,-1.711948 0.16659,-0.220896 4.42678,2.374637 6.21177,3.75524 0.952,0.745526 2.73699,2.319413 3.99838,3.506732 2.57039,2.457473 2.66559,2.67837 2.40379,6.323161 -0.71399,9.636608 -5.47398,18.610528 -12.80435,24.13294 -1.33279,0.994033 -2.95118,2.098517 -3.61758,2.485085 l -1.2138,0.690301 3.68899,-0.165672 c 3.99838,-0.165672 5.64058,-0.497017 9.06776,-1.822397 4.95038,-1.90523 9.44857,-4.970169 12.85195,-8.75302 1.97539,-2.208965 2.07059,-2.264189 2.45139,-1.767173 0.9996,1.297766 2.76079,8.421679 2.76079,11.238109 0,1.794782 -0.5712,3.009714 -2.47519,5.246289 -3.76038,4.390319 -10.23396,7.924662 -16.44573,8.94631 -2.90359,0.497016 -8.82977,0.441792 -10.94796,-0.08284 -0.9044,-0.248509 -1.71359,-0.386569 -1.76119,-0.303733 -0.1666,0.165673 1.88019,2.26419 3.66518,3.755242 6.52118,5.411962 15.56514,7.676151 24.41871,6.129877 0.99959,-0.165672 1.14239,-0.110448 1.28519,0.414181 0.5474,1.988069 -4.37918,13.088114 -6.33077,14.275435 -0.9996,0.579852 -4.23639,0.800749 -6.75918,0.41418 -8.16337,-1.242544 -15.92213,-5.798532 -22.65751,-13.336626 L 217.2944,75.23471 v 0.966421 c 0,0.524629 0.1428,1.877622 0.3332,3.009715 1.54699,9.388099 7.23517,18.168734 14.97014,23.083684 0.99959,0.63507 1.88019,1.29776 1.95159,1.46344 0.3332,0.57985 -1.0234,1.73956 -4.04598,3.45151 -3.28439,1.85 -7.02098,3.42389 -8.11577,3.42389 -1.3328,0 -3.21299,-1.43583 -5.80718,-4.41793 -2.87979,-3.34106 -4.49818,-5.93659 -6.18797,-9.995565 -1.8326,-4.417931 -2.40379,-7.068689 -2.59419,-11.873185 l -0.1428,-4.058975 -1.3566,2.126129 c -5.52157,8.587351 -6.47357,19.300826 -2.54659,28.274746 1.19,2.76121 1.2138,3.4239 0.0714,3.67241 -1.09479,0.22089 -4.71238,-0.0828 -6.87817,-0.57986 -3.59378,-0.85597 -5.14078,-2.37463 -6.14038,-6.01942 -0.42839,-1.62912 -0.52359,-2.59554 -0.52359,-5.68809 0.0238,-5.550023 0.95199,-9.222426 3.68898,-14.468718 2.61799,-4.997783 6.21178,-9.194815 10.40056,-12.066469 4.75998,-3.258223 8.04437,-7.206749 9.02016,-10.879152 1.3328,-4.997784 0.0714,-9.25004 -3.30818,-11.182885 -2.11819,-1.214929 -4.16499,-1.242541 -7.30657,-0.110448 -2.0468,0.717916 -2.57039,0.800752 -5.59298,0.800752 -2.85599,0 -3.68899,-0.110448 -5.83098,-0.77314 -8.63936,-2.623146 -15.49374,-9.829892 -17.39773,-18.362019 -0.3808,-1.684334 -0.476,-2.844042 -0.4284,-5.439576 0.0476,-1.822394 0,-3.589566 -0.119,-3.948523 -0.2142,-0.745526 -1.49939,-1.546275 -3.18918,-1.960456 -4.49818,-1.104483 -9.61517,0.93881 -16.39814,6.599283 -2.02299,1.656722 -4.61718,4.141808 -10.30536,9.80228 -13.18514,13.115727 -19.03992,17.367985 -28.36948,20.570984 -2.64179,0.911197 -3.16539,1.297766 -2.95119,2.126129 0.1904,0.717913 2.47519,2.650756 4.52198,3.865688 3.99838,2.347025 11.54295,4.500764 17.39773,4.997783 2.92739,0.248509 9.02017,0.05522 11.68575,-0.358959 1.7136,-0.27612 4.83138,-0.938809 5.85478,-1.242541 0.8568,-0.276121 0.8806,-0.331345 0.6188,-1.049258 -0.1666,-0.414183 -0.2856,-2.208965 -0.2856,-4.197034 0,-2.871654 0.0952,-3.755239 0.5236,-5.191068 1.35659,-4.417928 4.18878,-8.062719 7.83017,-10.050788 2.07059,-1.132094 3.87938,-1.573886 6.37837,-1.573886 4.75998,-0.02761 8.16337,1.739558 13.44695,7.013462 5.30738,5.246292 7.87776,6.958238 12.73295,8.44929 1.49939,0.441793 2.80839,0.579853 6.09277,0.662689 4.73618,0.110448 5.80718,0.41418 6.06898,1.656725 0.357,1.684334 -1.071,3.451507 -4.54578,5.715693 -1.0472,0.690304 -5.33118,3.230614 -9.51997,5.660473 -11.37635,6.571672 -16.63613,10.023179 -22.84791,14.965735 -3.04638,2.429862 -8.68696,7.427646 -8.68696,7.703766 0,0.276118 4.49818,4.114198 7.02097,6.019428 2.78459,2.09852 8.66317,5.52241 11.66195,6.79257 7.73497,3.31344 15.66034,4.97017 23.91891,5.02539 6.68777,0.0552 11.35255,-0.52463 17.01693,-2.09852 24.3235,-6.70972 40.19804,-27.750114 41.19764,-54.616647 C 260.84822,45.524135 255.89784,30.668847 246.54448,19.817307 236.52472,8.1926307 222.93498,2.5321587 208.72643,4.1060459 Z"
       id="path28"
       style="fill:#d45500;stroke:none;stroke-width:0.0256352" />
    <path
       d="m 89.20331,63.554809 c -6.687773,1.07687 -13.185147,4.500764 -17.183531,9.111979 -1.404195,1.62911 -3.165388,4.003748 -2.927389,4.003748 0.0714,0 0.809197,-0.497017 1.642194,-1.076869 6.640174,-4.694051 12.566349,-6.599282 19.373122,-6.295549 5.331178,0.248508 10.114964,1.739558 19.492124,6.074653 10.25776,4.749272 19.01612,6.737341 26.39409,5.991816 3.26059,-0.331344 5.47398,-0.773137 7.42557,-1.518664 1.7612,-0.690301 4.40299,-2.236575 5.21218,-3.037327 0.4046,-0.41418 0.595,-0.662689 0.4522,-0.579852 -0.6664,0.358956 -4.09358,1.049257 -6.83057,1.32538 -3.47479,0.358956 -7.49697,0.05522 -11.32876,-0.883588 -3.23678,-0.800749 -8.80596,-3.009714 -12.44735,-4.997781 -7.75877,-4.169422 -8.97256,-4.776887 -11.56675,-5.77092 -6.14038,-2.374638 -12.352151,-3.202999 -17.70713,-2.347026 z"
       id="path29"
       style="fill:#d45500;stroke:none;stroke-width:0.0256352" />
    <path
       d="m 154.48645,80.812347 c -2.18959,1.435825 -4.97418,2.899266 -8.02057,4.224643 -4.16498,1.822397 -10.44816,3.147775 -18.54013,3.920912 -7.25896,0.690303 -10.87655,1.573888 -15.11293,3.644794 -3.40339,1.684334 -6.14038,3.810463 -9.63897,7.482864 -5.116976,5.38435 -10.067356,7.97989 -15.945932,8.31123 l -2.855988,0.16567 0.951997,0.57986 c 4.11738,2.56792 10.900355,2.70598 17.135933,0.35895 3.11778,-1.18731 6.73537,-3.34105 9.23436,-5.55002 1.2138,-1.04926 3.26059,-2.84404 4.54578,-4.003748 3.71279,-3.230611 7.94917,-5.411964 13.01855,-6.654505 2.35619,-0.579853 5.68818,-1.04926 5.68818,-0.800749 0,0.110448 -0.714,0.635076 -1.5946,1.187317 -3.28438,2.098517 -5.92617,4.141808 -7.47317,5.826145 -6.14037,6.73734 -4.26018,15.90454 4.06979,19.85307 4.54578,2.15374 11.89995,2.37464 15.94593,0.49702 l 1.0472,-0.49702 -1.95159,-0.49702 c -2.35619,-0.60746 -3.18919,-1.04926 -4.40299,-2.40225 -1.21379,-1.32538 -1.59459,-2.20896 -1.59459,-3.78285 0,-3.61718 2.71319,-6.82018 11.18596,-13.17095 5.54538,-4.16942 9.04396,-7.317198 11.30495,-10.244076 1.547,-1.988066 3.14159,-4.5836 2.83219,-4.5836 -0.0714,0 -0.7616,0.579853 -1.52319,1.297766 -2.02299,1.932845 -5.64058,4.473154 -10.56716,7.455257 -5.56918,3.396283 -8.42517,5.329128 -10.49576,7.123913 -6.44977,5.60525 -8.18717,11.98363 -4.35538,16.0426 0.5712,0.60747 1.26139,1.27016 1.49939,1.43583 1.547,0.99404 -1.59459,0.35896 -3.59378,-0.74552 -2.64179,-1.43583 -4.09359,-3.67241 -4.30779,-6.65451 -0.49979,-6.24033 4.83138,-13.80603 14.20855,-20.156804 6.25937,-4.252258 10.25775,-7.869437 11.49535,-10.437359 0.238,-0.497017 0.4046,-0.883585 0.357,-0.855973 -0.0476,0 -1.19,0.745525 -2.54659,1.629113 z"
       id="path30"
       style="fill:#d45500;stroke:none;stroke-width:0.0256352" />
    <path
       d="M 97.104878,80.287715 C 87.632516,81.530259 78.659952,86.969835 74.20937,94.14897 l -0.475998,0.773137 1.404193,-0.745525 c 7.568371,-4.003748 12.066552,-5.605249 18.778126,-6.764954 3.093987,-0.524629 4.331582,-0.607465 9.734159,-0.524629 15.46994,0.193285 18.70673,0.138061 20.94392,-0.358956 2.26099,-0.524631 8.32997,-2.761206 7.73497,-2.871654 -0.1904,-0.02761 -2.37999,-0.110448 -4.87898,-0.165672 -4.64098,-0.138063 -4.95038,-0.193287 -16.30294,-2.54031 -3.78418,-0.800752 -10.59095,-1.104484 -14.041942,-0.662692 z"
       id="path31"
       style="fill:#d45500;stroke:none;stroke-width:0.0256352" />
    <ellipse
       style="fill:#ffffff;fill-opacity:1;stroke:#fdfdfd;stroke-width:1.85383;stroke-dasharray:none;stroke-opacity:1"
       id="path42"
       cx="171.22888"
       cy="59.789909"
       rx="2.7377598"
       ry="2.7071669" />
    <ellipse
       style="fill:#ffffff;fill-opacity:1;stroke:#fdfdfd;stroke-width:2.27301;stroke-dasharray:none;stroke-opacity:1"
       id="path43"
       ry="0.65187776"
       rx="0.6523878"
       cy="67.158409"
       cx="162.71147" />
  </g>
</svg>
