<?xml version="1.0" encoding="UTF-8" standalone="no"?>
<svg
   version="1.0"
   width="218.34364pt"
   height="176.32159pt"
   viewBox="0 0 218.34364 176.32159"
   preserveAspectRatio="xMidYMid"
   id="svg6"
   sodipodi:docname="nautilus-cambra-square.svg"
   inkscape:version="1.4.3 (0d15f75, 2025-12-25)"
   xmlns:inkscape="http://www.inkscape.org/namespaces/inkscape"
   xmlns:sodipodi="http://sodipodi.sourceforge.net/DTD/sodipodi-0.dtd"
   xmlns="http://www.w3.org/2000/svg"
   xmlns:svg="http://www.w3.org/2000/svg">
  <defs
     id="defs6">
    <rect
       x="1047.0129"
       y="80.424889"
       width="1306.1598"
       height="417.01797"
       id="rect1" />
  </defs>
  <sodipodi:namedview
     id="namedview6"
     pagecolor="#ffffff"
     bordercolor="#000000"
     borderopacity="0.25"
     inkscape:showpageshadow="2"
     inkscape:pageopacity="0.0"
     inkscape:pagecheckerboard="true"
     inkscape:deskcolor="#d1d1d1"
     inkscape:document-units="pt"
     showguides="true"
     inkscape:lockguides="false"
     inkscape:zoom="1.0049783"
     inkscape:cx="482.09996"
     inkscape:cy="259.20958"
     inkscape:window-width="1868"
     inkscape:window-height="1218"
     inkscape:window-x="3178"
     inkscape:window-y="148"
     inkscape:window-maximized="0"
     inkscape:current-layer="layer2" />
  <g
     inkscape:groupmode="layer"
     id="layer1"
     inkscape:label="Layer 1"
     transform="translate(-124.45682,-276.80057)">
    <path
       id="path32"
       style="display:inline;fill:#000000;stroke:#fdfdfd;stroke-width:6.53454;stroke-linecap:round;stroke-linejoin:round;stroke-dasharray:none;stroke-opacity:1"
       d="m 272.0783,280.072 c -1.48282,-0.0228 -2.97887,0.0481 -4.48295,0.21477 -6.22796,0.67813 -12.59692,3.15696 -17.85743,6.96848 -2.80156,2.03437 -6.24814,5.26135 -7.69931,7.1788 -0.88683,1.21594 -1.04811,1.56663 -1.04811,2.38505 0,0.9821 0.36281,1.4263 1.12871,1.4263 0.18139,0 1.35036,-1.14586 2.57982,-2.52549 2.41863,-2.73588 3.9909,-4.16204 5.62347,-5.14416 1.57211,-0.93533 3.3859,-0.88877 5.26033,0.1401 3.38607,1.8473 6.77217,6.31377 8.68691,11.43476 0.90698,2.45528 1.69325,5.6353 1.83434,7.57614 0.0781,0.86081 0.1938,1.56792 0.29258,1.61127 7e-4,4.7e-4 0.002,7e-4 0.003,8.4e-4 0.003,7e-4 0.005,8.3e-4 0.008,8.3e-4 h 0.003 c 0.004,-4.7e-4 0.009,-0.003 0.0133,-0.005 0.23745,-0.14096 1.30222,-3.16694 1.63682,-4.78826 1.22947,-5.72896 0.74579,-11.57485 -1.37051,-16.4854 -0.84652,-1.96422 -2.29757,-4.18574 -3.20456,-4.88725 -0.4031,-0.30399 -0.7257,-0.63127 -0.7257,-0.7248 0,-0.63136 4.95835,-1.40301 8.94908,-1.40301 2.88219,0 4.39377,1.2626 5.98603,5.02735 0.44341,1.02887 1.02782,2.92294 1.30999,4.20904 0.46357,2.05775 0.52406,2.8059 0.52406,6.0796 0,3.20355 -0.0603,4.09224 -0.50369,6.19676 -0.52403,2.52542 -1.39075,5.14421 -2.25742,6.96813 -0.28217,0.58459 -0.50398,1.07571 -0.50398,1.12248 0,0.0241 0.0204,0.031 0.0585,0.0226 0.0127,-0.003 0.0272,-0.008 0.0437,-0.0134 0.46239,-0.17167 2.38707,-1.61688 3.58631,-2.72176 4.91786,-4.60656 8.06211,-12.48674 7.39699,-18.5197 -0.10077,-0.9821 -0.36288,-2.4085 -0.58458,-3.15678 -0.22171,-0.74827 -0.36279,-1.40282 -0.30232,-1.44959 0.14108,-0.18707 3.74897,2.0109 5.26062,3.18007 0.8062,0.63135 2.31761,1.96427 3.38583,2.96976 2.17676,2.08113 2.2574,2.26817 2.03569,5.35481 -0.60465,8.16085 -4.63555,15.76048 -10.84335,20.4372 -1.12869,0.8418 -2.49938,1.77714 -3.06373,2.10451 l -1.02773,0.5847 3.12395,-0.14043 c 3.38608,-0.1403 4.7769,-0.42104 7.67925,-1.54346 4.19228,-1.61346 8.0016,-4.20885 10.8838,-7.4124 1.67288,-1.87068 1.75336,-1.91742 2.07584,-1.49652 0.84652,1.09903 2.33802,7.1318 2.33802,9.51692 0,1.51993 -0.4838,2.54892 -2.09621,4.44299 -3.18453,3.71798 -8.66665,6.71094 -13.92716,7.57613 -2.45893,0.4209 -7.47767,0.37441 -9.27149,-0.0699 -0.76589,-0.21044 -1.45095,-0.32739 -1.49126,-0.25724 -0.14109,0.1403 1.59224,1.91736 3.10388,3.18008 5.52252,4.58317 13.18131,6.50055 20.67904,5.19107 0.84652,-0.1403 0.96763,-0.0935 1.08857,0.35076 0.46356,1.68361 -3.70858,11.08384 -5.36131,12.08933 -0.84652,0.49106 -3.5877,0.67813 -5.72415,0.35076 -6.91323,-1.05226 -13.48386,-4.91061 -19.18778,-11.29433 l -1.26984,-1.403 v 0.81831 c 0,0.44429 0.12101,1.59039 0.28226,2.54912 1.31008,7.95041 6.12725,15.38606 12.67769,19.54833 0.84652,0.53782 1.5923,1.09932 1.65277,1.23963 0.28217,0.49105 -0.86688,1.47304 -3.42659,2.92282 -2.78141,1.5667 -5.9458,2.89954 -6.87293,2.89954 -1.1287,0 -2.72093,-1.21606 -4.91785,-3.74148 -2.43878,-2.82941 -3.80923,-5.02728 -5.24025,-8.46466 -1.55195,-3.74137 -2.03565,-5.98631 -2.1969,-10.05504 l -0.12105,-3.43731 -1.14879,1.80035 c -4.676,7.27228 -5.48204,16.34541 -2.15644,23.94506 1.00776,2.33836 1.02768,2.8994 0.0603,3.10986 -0.92715,0.18707 -3.99071,-0.0703 -5.82483,-0.4912 -3.04344,-0.72488 -4.35329,-2.01093 -5.19981,-5.09756 -0.36279,-1.37963 -0.44345,-2.19808 -0.44345,-4.81703 0.0202,-4.7001 0.80611,-7.80986 3.12395,-12.25273 2.21707,-4.23242 5.26065,-7.78688 8.80796,-10.21877 4.03104,-2.75926 6.81243,-6.10309 7.63879,-9.2131 1.1287,-4.23242 0.0605,-7.83349 -2.80155,-9.47033 -1.79381,-1.02888 -3.52719,-1.05224 -6.18767,-0.0935 -0.43335,0.152 -0.78628,0.27033 -1.11159,0.36241 -0.97596,0.27622 -1.7052,0.31581 -3.62498,0.31581 -2.41863,0 -3.12396,-0.0937 -4.93793,-0.65492 -7.31633,-2.22144 -13.12105,-8.32443 -14.73345,-15.54995 -0.32249,-1.4264 -0.40317,-2.40866 -0.36286,-4.60672 0.0403,-1.54331 0,-3.03981 -0.10068,-3.3438 -0.18139,-0.63135 -1.26985,-1.3095 -2.70087,-1.66025 -3.80933,-0.93534 -8.14277,0.79513 -13.887,5.58875 -1.7132,1.40302 -3.90997,3.50765 -8.72706,8.30128 -11.16598,11.10718 -16.12419,14.70802 -24.02502,17.42051 -2.23723,0.77166 -2.68062,1.09919 -2.49923,1.8007 0.16125,0.60797 2.09595,2.24471 3.82929,3.27358 3.38607,1.9876 9.77529,3.81143 14.73346,4.23233 2.47909,0.21045 7.63884,0.0469 9.89622,-0.30383 1.45117,-0.23383 4.09162,-0.79504 4.95829,-1.05226 0.72559,-0.23383 0.74576,-0.28055 0.52406,-0.88852 -0.14109,-0.35076 -0.2418,-1.87085 -0.2418,-3.55447 0,-2.43188 0.0803,-3.18011 0.44316,-4.39606 1.14884,-3.74136 3.54739,-6.82797 6.63113,-8.51159 1.7535,-0.95872 3.28545,-1.33279 5.40174,-1.33279 4.03104,-0.0234 6.91304,1.47326 11.38749,5.93951 4.49461,4.44288 6.67146,5.89245 10.78312,7.15517 1.26978,0.37413 2.37824,0.49125 5.15965,0.5614 4.01088,0.0935 4.91787,0.35076 5.13957,1.40302 0.30233,1.42639 -0.907,2.92287 -3.84965,4.84032 -0.88683,0.58459 -4.51457,2.73599 -8.06188,4.79374 -9.63418,5.56529 -14.08848,8.48805 -19.34898,12.67371 -2.57987,2.05775 -7.35685,6.29004 -7.35685,6.52387 0,0.23384 3.80944,3.48445 5.94588,5.09791 2.35816,1.77715 7.33659,4.6765 9.87615,5.75214 6.55043,2.80603 13.26211,4.2092 20.25596,4.25597 5.66361,0.0468 9.61383,-0.44453 14.41076,-1.7774 20.5986,-5.6822 34.04223,-23.50031 34.88875,-46.2525 0.48372,-13.04802 -3.7086,-25.62834 -11.62958,-34.81807 -7.42467,-8.61392 -17.16396,-13.36089 -27.54372,-13.5201 z m -27.23991,19.91586 c -0.43358,0.0126 -0.85741,0.0551 -1.26807,0.12811 -1.24962,0.23384 -2.338,0.77175 -2.72094,1.37972 -0.34264,0.53782 -0.32243,3.08674 0.0605,4.79375 1.28994,5.84588 6.2482,10.99003 12.37537,12.86072 1.91475,0.58458 5.74437,0.77184 6.69166,0.30417 1.12869,-0.5612 1.451,-1.2861 1.33006,-3.15678 -0.26202,-3.99859 -3.34569,-9.63405 -6.89301,-12.5336 -3.01572,-2.4962 -6.54058,-3.86464 -9.57558,-3.77609 z m -12.2121,21.24352 c -1.08838,-0.0233 -2.19705,0.0702 -2.7614,0.25725 -2.88219,0.95872 -5.09922,3.50741 -5.90542,6.78111 -0.46357,1.82392 -0.32249,4.65353 0.30232,6.52421 0.60466,1.84731 2.51936,4.23238 4.09146,5.09757 1.67289,0.91196 3.58768,1.23919 5.2001,0.91183 3.40623,-0.67813 6.10688,-3.46066 6.91309,-7.13187 1.08838,-4.84039 -0.78587,-9.51717 -4.65567,-11.64508 -1.169,-0.63135 -1.63253,-0.74825 -3.18448,-0.79502 z m 2.46646,3.227 c 0.50639,0.0117 1.01033,0.15207 1.3832,0.42097 0.90699,0.63136 1.41075,2.2446 1.08826,3.39039 -0.48372,1.70699 -2.11625,2.59562 -3.48681,1.91749 -1.85427,-0.88856 -2.09611,-4.30245 -0.38292,-5.37809 0.38295,-0.24554 0.89186,-0.36245 1.39827,-0.35076 z m -65.1918,5.89533 c -1.21214,0.005 -2.39117,0.0966 -3.5249,0.27779 -5.66361,0.91196 -11.16581,3.81152 -14.55188,7.71658 -1.18916,1.37962 -2.6807,3.39072 -2.47915,3.39072 0.0604,0 0.68516,-0.42076 1.39059,-0.91182 5.6233,-3.9752 10.64192,-5.58874 16.4063,-5.33151 4.51476,0.21044 8.56613,1.47292 16.50728,5.14415 8.68689,4.02196 16.10378,5.70562 22.35188,5.07427 2.76126,-0.28061 4.63593,-0.65451 6.28866,-1.28586 1.49148,-0.5846 3.72859,-1.89431 4.41386,-2.57242 0.27572,-0.28225 0.43391,-0.47403 0.4222,-0.50147 l -2.3e-4,-2.3e-4 -2.3e-4,-4.7e-4 -2.4e-4,-4.6e-4 -2.3e-4,-4.7e-4 h -2.3e-4 c -0.005,-0.004 -0.017,0 -0.0378,0.012 -0.56435,0.30398 -3.46654,0.88864 -5.78438,1.12247 -2.94267,0.30399 -6.34891,0.0466 -9.59389,-0.74843 -2.74111,-0.67812 -7.45758,-2.54872 -10.54133,-4.23233 -6.57058,-3.53091 -7.59832,-4.04544 -9.79524,-4.88725 -3.90003,-1.50824 -7.83431,-2.27976 -11.47074,-2.26551 z m 58.95628,2.03156 c 0.20155,0 0.56415,0.21068 0.80602,0.4679 0.24185,0.2806 0.44345,0.70128 0.44345,0.93511 0,0.60797 -0.68528,1.40301 -1.20932,1.40301 -0.2217,0 -0.5843,-0.21034 -0.806,-0.46755 -0.22172,-0.25722 -0.40331,-0.67824 -0.40331,-0.93546 0,-0.58459 0.68544,-1.40301 1.16916,-1.40301 z m -5.03624,11.48031 c 0.62464,-0.92585 -0.002,4.7e-4 -0.003,8.4e-4 -0.0403,0 -1.0076,0.63145 -2.15645,1.37972 -1.85427,1.21594 -4.21247,2.45534 -6.79233,3.57775 -3.52715,1.54332 -8.84821,2.66577 -15.70097,3.32052 -6.14733,0.58458 -9.21082,1.33279 -12.79844,3.08655 -2.8822,1.4264 -5.20004,3.22684 -8.16285,6.33685 -4.33337,4.5598 -8.52575,6.75776 -13.50408,7.03836 l -2.41862,0.14044 0.80631,0.49119 c 3.48685,2.17467 9.23107,2.29142 14.51173,0.30382 2.64033,-1.00549 5.70378,-2.82954 7.82007,-4.70023 1.02792,-0.88856 2.76128,-2.40827 3.84967,-3.39038 3.1442,-2.73587 6.73186,-4.58308 11.02492,-5.63534 1.99536,-0.49106 4.81717,-0.88867 4.81717,-0.67821 0,0.0935 -0.6047,0.53766 -1.35044,1.00533 -2.78141,1.77714 -5.01872,3.50778 -6.3288,4.93418 -5.20004,5.70558 -3.60767,13.46867 3.44665,16.81251 3.84964,1.82392 10.0774,2.01106 13.50378,0.42098 l 0.8869,-0.42098 -1.65276,-0.42096 c -1.99537,-0.51444 -2.70069,-0.88851 -3.72861,-2.03431 -1.02792,-1.12241 -1.35044,-1.8705 -1.35044,-3.20336 0,-3.06325 2.2976,-5.77567 9.47284,-11.15388 4.69616,-3.53092 7.65907,-6.19667 9.57381,-8.67532 1.31009,-1.68362 2.66057,-3.88192 2.39855,-3.88192 -0.0605,0 -0.64494,0.49121 -1.28991,1.09918 -1.71319,1.63685 -4.77696,3.78814 -8.94909,6.31356 -4.7163,2.87618 -7.13475,4.51309 -8.88825,6.03302 -5.46206,4.74686 -6.93345,10.14849 -3.68846,13.58587 0.48372,0.51444 1.06828,1.07535 1.26983,1.21565 0.261,0.16769 0.36441,0.28068 0.34928,0.34664 -2.4e-4,0.002 -7e-4,0.003 -8.4e-4,0.004 -0.0791,0.25647 -2.0426,-0.2367 -3.39174,-0.98205 -2.23723,-1.21594 -3.46662,-3.10991 -3.64801,-5.63534 -0.42326,-5.28468 4.09144,-11.69189 12.03259,-17.07011 5.30081,-3.60106 8.68694,-6.66403 9.73501,-8.8387 0.1858,-0.38802 0.32024,-0.69693 0.30853,-0.72446 l -2.3e-4,-4.7e-4 -2.3e-4,-4.6e-4 v -4.6e-4 h -2.4e-4 l -2.3e-4,-4.6e-4 h -2.4e-4 l -2.2e-4,-2.4e-4 h -2.4e-4 -2.3e-4 -2.4e-4 -2.3e-4 c 0.0343,0 0.60998,0 0.60973,0 z M 178.9076,344.688 c -2.207,-0.1023 -4.37863,-0.073 -5.83989,0.11407 -8.02176,1.05226 -15.6204,5.65887 -19.38943,11.73858 l -0.403,0.65458 1.18924,-0.63128 c 6.40934,-3.39062 10.21856,-4.74675 15.90232,-5.72886 2.62018,-0.44429 3.66823,-0.51441 8.24346,-0.44426 13.10087,0.16368 15.84207,0.11673 17.73665,-0.30417 1.91475,-0.44428 7.05412,-2.33844 6.55025,-2.43198 -0.16125,-0.0234 -2.01533,-0.0933 -4.13162,-0.14009 -3.93026,-0.11692 -4.19238,-0.16385 -13.8064,-2.15145 -1.60234,-0.33907 -3.84459,-0.57283 -6.05158,-0.67514 z"
       sodipodi:nodetypes="scccsscccccssscccscssccsccsssccscccccccccccscccccccccccsccccscccccccccccccccssccccccccccscccsccccccccccscccccsssscccscccscccccccccsccccscccscccccccccccccccccccscsssssccccccccccccccscccccccsccscccccsccccccccccccccccsccsccccccccccs" />
    <path
       style="fill:#ffffff;fill-opacity:1;stroke:#fdfdfd;stroke-width:3.97841;stroke-dasharray:none;stroke-opacity:1"
       id="path44"
       sodipodi:type="arc"
       sodipodi:cx="269.79352"
       sodipodi:cy="327.68192"
       sodipodi:rx="39.769131"
       sodipodi:ry="45.759411"
       sodipodi:start="0"
       sodipodi:end="6.2786838"
       sodipodi:arc-type="slice"
       d="m 309.56265,327.68192 a 39.769131,45.759411 0 0 1 -39.72438,45.75938 39.769131,45.759411 0 0 1 -39.81378,-45.65639 39.769131,45.759411 0 0 1 39.63476,-45.86214 39.769131,45.759411 0 0 1 39.903,45.55316 l -39.76873,0.20599 z" />
    <path
       style="fill:#ffffff;fill-opacity:1;stroke:#fdfdfd;stroke-width:2.19265;stroke-dasharray:none;stroke-opacity:1"
       id="path45"
       sodipodi:type="arc"
       sodipodi:cx="230.46834"
       sodipodi:cy="328.61383"
       sodipodi:rx="21.657686"
       sodipodi:ry="20.362625"
       sodipodi:start="0"
       sodipodi:end="6.2786838"
       sodipodi:arc-type="slice"
       d="m 252.12602,328.61383 a 21.657686,20.362625 0 0 1 -21.63331,20.36261 21.657686,20.362625 0 0 1 -21.682,-20.31678 21.657686,20.362625 0 0 1 21.58451,-20.40834 21.657686,20.362625 0 0 1 21.73058,20.27085 l -21.65746,0.0917 z" />
    <path
       style="fill:#ffffff;fill-opacity:1;stroke:#fdfdfd;stroke-width:3.07849;stroke-dasharray:none;stroke-opacity:1"
       id="path46"
       sodipodi:type="arc"
       sodipodi:cx="175.19971"
       sodipodi:cy="331.06625"
       sodipodi:rx="23.176069"
       sodipodi:ry="11.865703"
       sodipodi:start="0"
       sodipodi:end="6.2786838"
       sodipodi:arc-type="slice"
       d="m 198.37578,331.06625 a 23.176069,11.865703 0 0 1 -23.14999,11.8657 23.176069,11.865703 0 0 1 -23.20209,-11.83899 23.176069,11.865703 0 0 1 23.09776,-11.89234 23.176069,11.865703 0 0 1 23.25408,11.81222 l -23.17583,0.0534 z"
       transform="matrix(0.99981491,0.01923913,0.14027853,0.99011208,0,0)" />
    <path
       style="fill:#ffffff;fill-opacity:1;stroke:#fdfdfd;stroke-width:3.05957;stroke-dasharray:none;stroke-opacity:1"
       id="path47"
       sodipodi:type="arc"
       sodipodi:cx="-74.570389"
       sodipodi:cy="418.40033"
       sodipodi:rx="24.743843"
       sodipodi:ry="10.977555"
       sodipodi:start="0"
       sodipodi:end="6.2786838"
       sodipodi:arc-type="slice"
       d="m -49.826546,418.40033 a 24.743843,10.977555 0 0 1 -24.715997,10.97755 24.743843,10.977555 0 0 1 -24.771626,-10.95284 24.743843,10.977555 0 0 1 24.660242,-11.0022 24.743843,10.977555 0 0 1 24.827131,10.92807 l -24.743593,0.0494 z"
       transform="matrix(0.7227279,-0.69113268,0.71383778,0.7003111,0,0)" />
  </g>
  <g
     inkscape:groupmode="layer"
     id="layer2"
     inkscape:label="Layer 2"
     transform="translate(-29.691647,-30.587003)">
    <path
       d="m 172.83027,34.073276 c -6.22795,0.678123 -12.597,3.156779 -17.8575,6.968297 -2.80157,2.03437 -6.2481,5.261298 -7.69928,7.17875 -0.88683,1.215944 -1.04807,1.566697 -1.04807,2.385121 0,0.98211 0.36279,1.426397 1.12869,1.426397 0.1814,0 1.3504,-1.145794 2.57987,-2.525423 2.41861,-2.735875 3.99072,-4.162272 5.62329,-5.144381 1.57211,-0.935341 3.38607,-0.888574 5.26051,0.140302 3.38607,1.8473 6.77214,6.313558 8.68689,11.434553 0.90697,2.455273 1.69303,5.635437 1.83412,7.576269 0.0806,0.888577 0.20155,1.613467 0.30232,1.613467 0.20155,0 1.31009,-3.133396 1.65273,-4.793628 1.22946,-5.728969 0.74574,-11.574856 -1.37056,-16.485401 -0.84651,-1.964218 -2.29769,-4.185655 -3.20467,-4.887162 -0.4031,-0.303985 -0.72559,-0.631355 -0.72559,-0.724889 0,-0.631356 4.95818,-1.403013 8.94891,-1.403013 2.88218,0 4.39383,1.262711 5.98609,5.027462 0.44341,1.028877 1.02791,2.922944 1.31008,4.209039 0.46357,2.057752 0.52404,2.806025 0.52404,6.079722 0,3.203546 -0.0604,4.092122 -0.50388,6.196639 -0.52403,2.525424 -1.39071,5.144381 -2.25738,6.968298 -0.28217,0.584589 -0.50388,1.075645 -0.50388,1.122412 0,0.257219 2.31785,-1.449781 3.6884,-2.712491 4.91786,-4.60656 8.06208,-12.486816 7.39695,-18.519771 -0.10078,-0.982109 -0.36279,-2.408505 -0.5845,-3.156779 -0.2217,-0.748273 -0.36279,-1.403013 -0.30232,-1.44978 0.14108,-0.187068 3.74886,2.010985 5.26049,3.180163 0.80621,0.631355 2.31785,1.964218 3.38608,2.969711 2.17676,2.081135 2.25738,2.268203 2.03567,5.354831 -0.60465,8.160858 -4.63569,15.760511 -10.84349,20.437221 -1.12869,0.841806 -2.49924,1.77715 -3.06358,2.104519 l -1.02793,0.584588 3.12406,-0.1403 c 3.38607,-0.140302 4.77679,-0.420904 7.67913,-1.543315 4.19228,-1.613464 8.00161,-4.209038 10.8838,-7.412583 1.67288,-1.870684 1.7535,-1.917451 2.07599,-1.496548 0.84651,1.099026 2.33799,7.131983 2.33799,9.517104 0,1.51993 -0.48372,2.548807 -2.09614,4.442873 -3.18451,3.717985 -8.66672,6.711079 -13.92723,7.576272 -2.45893,0.420903 -7.47757,0.374136 -9.27139,-0.07016 -0.76589,-0.210452 -1.45117,-0.327369 -1.49148,-0.257219 -0.14109,0.140301 1.59226,1.917452 3.1039,3.180164 5.52252,4.583174 13.1815,6.500624 20.67922,5.191148 0.84652,-0.140301 0.96745,-0.09353 1.08838,0.350753 0.46357,1.683613 -3.70855,11.083792 -5.36127,12.089292 -0.84652,0.49105 -3.58763,0.67812 -5.72408,0.35075 -6.91323,-1.05226 -13.48382,-4.91054 -19.18774,-11.294249 l -1.26978,-1.403012 v 0.818423 c 0,0.444289 0.12093,1.590079 0.28218,2.548809 1.31008,7.950399 6.12717,15.386369 12.67761,19.548639 0.84652,0.53782 1.59226,1.09903 1.65273,1.23932 0.28217,0.49106 -0.86668,1.47317 -3.42639,2.92295 -2.78141,1.56669 -5.94578,2.89956 -6.87292,2.89956 -1.12868,0 -2.72095,-1.21594 -4.91786,-3.74137 -2.43878,-2.8294 -3.80933,-5.02746 -5.24035,-8.46483 -1.55195,-3.74138 -2.03567,-5.9862 -2.19692,-10.05493 l -0.12093,-3.437379 -1.14884,1.800519 c -4.67601,7.27229 -5.48221,16.34511 -2.15661,23.94475 1.00776,2.33836 1.02792,2.89956 0.0605,3.11002 -0.92713,0.18707 -3.99073,-0.0701 -5.82485,-0.49105 -3.04343,-0.7249 -4.35351,-2.01099 -5.20004,-5.09762 -0.36279,-1.37963 -0.44341,-2.19805 -0.44341,-4.81701 0.0202,-4.70009 0.8062,-7.8101 3.12406,-12.25298 2.21706,-4.23242 5.2605,-7.786709 8.80781,-10.218602 4.03104,-2.759258 6.81245,-6.103107 7.63881,-9.213118 1.1287,-4.232424 0.0604,-7.833489 -2.80156,-9.470338 -1.79382,-1.028875 -3.52716,-1.052258 -6.18765,-0.09353 -1.73335,0.607974 -2.17676,0.678124 -4.73647,0.678124 -2.41862,0 -3.12405,-0.09353 -4.93802,-0.65474 -7.31633,-2.221437 -13.12103,-8.324542 -14.73344,-15.550059 -0.32248,-1.426395 -0.40311,-2.408505 -0.36279,-4.606559 0.0403,-1.543313 0,-3.039861 -0.10077,-3.343846 -0.1814,-0.631357 -1.26978,-1.309479 -2.7008,-1.660233 -3.80933,-0.935341 -8.1427,0.795041 -13.88692,5.588669 -1.7132,1.403012 -3.91011,3.507532 -8.72721,8.301159 -11.16597,11.107184 -16.12415,14.708252 -24.024993,17.420743 -2.237224,0.771656 -2.680634,1.099025 -2.499244,1.800534 0.16125,0.607972 2.09614,2.244818 3.829494,3.273696 3.38607,1.987601 9.775263,3.811517 14.733453,4.232422 2.47909,0.210452 7.63882,0.04677 9.89619,-0.303988 1.45117,-0.233835 4.09151,-0.795039 4.95818,-1.052258 0.72559,-0.233836 0.74575,-0.280603 0.52403,-0.888575 -0.14108,-0.350754 -0.24185,-1.870684 -0.24185,-3.5543 0,-2.431889 0.0806,-3.180162 0.44341,-4.396108 1.14884,-3.741366 3.54731,-6.827994 6.63106,-8.51161 1.7535,-0.958724 3.28529,-1.332861 5.40159,-1.332861 4.03103,-0.02338 6.91322,1.473162 11.38768,5.93942 4.4946,4.442875 6.67136,5.892653 10.78302,7.155367 1.26978,0.374136 2.37832,0.491053 5.15973,0.561204 4.01088,0.09353 4.91787,0.350753 5.13957,1.403014 0.30233,1.426395 -0.90698,2.922943 -3.84964,4.840392 -0.88683,0.584591 -4.51476,2.735877 -8.06208,4.793632 -9.63417,5.565279 -14.08847,8.488219 -19.34898,12.673869 -2.57986,2.05775 -7.35664,6.29018 -7.35664,6.52401 0,0.23384 3.80933,3.48414 5.94579,5.09761 2.35814,1.77716 7.33648,4.67672 9.87603,5.75236 6.55044,2.80602 13.26211,4.20903 20.25597,4.2558 5.6636,0.0468 9.61402,-0.44428 14.41096,-1.77715 20.5986,-5.6822 34.0421,-23.50046 34.88863,-46.252645 0.48368,-13.048015 -3.7086,-25.628363 -11.62959,-34.818099 -8.48533,-9.844472 -19.99395,-14.6381 -32.02659,-13.305238 z"
       id="path1"
       style="fill:#d45500;stroke:none;stroke-width:0.0217094" />
    <path
       d="m 148.80529,53.902526 c -1.24963,0.233835 -2.33801,0.771656 -2.72096,1.379628 -0.34264,0.537821 -0.32248,3.086627 0.0605,4.793627 1.28993,5.845886 6.24811,10.990266 12.37529,12.860951 1.91474,0.584588 5.74423,0.771659 6.69152,0.303986 1.12869,-0.561205 1.45117,-1.286094 1.33024,-3.156779 -0.26201,-3.998587 -3.34576,-9.634022 -6.89307,-12.533581 -3.44654,-2.852793 -7.5582,-4.232422 -10.84349,-3.647832 z"
       id="path2"
       style="fill:#d45500;stroke:none;stroke-width:0.0217094" />
    <path
       d="m 135.03126,75.314793 c -3.32787,0.954145 -5.88777,3.490773 -6.81864,6.748828 -0.53525,1.815202 -0.37235,4.631093 0.34907,6.492838 0.69816,1.838475 2.90898,4.2122 4.72419,5.073257 1.93156,0.907601 4.14238,1.233407 6.00412,0.907601 3.93294,-0.674883 7.05137,-3.444229 7.98224,-7.097906 1.25667,-4.817266 -0.9076,-9.47163 -5.37579,-11.589366 -1.34976,-0.628339 -1.88502,-0.744698 -3.67695,-0.791242 -1.25668,-0.02327 -2.53663,0.06982 -3.18824,0.25599 z m 7.63316,3.374414 c 1.04723,0.628339 1.62902,2.234095 1.25668,3.374414 -0.55853,1.698843 -2.44354,2.583172 -4.02603,1.90829 -2.141,-0.88433 -2.42026,-4.282015 -0.44216,-5.35252 0.88433,-0.488707 2.35046,-0.465436 3.21151,0.06982 z m -7.86588,7.935691 c 0.27927,0.279262 0.51199,0.698155 0.51199,0.930873 0,0.605067 -0.79125,1.396309 -1.39631,1.396309 -0.256,0 -0.67488,-0.209446 -0.93088,-0.465436 -0.25599,-0.25599 -0.46543,-0.674883 -0.46543,-0.930873 0,-0.581795 0.79124,-1.39631 1.34976,-1.39631 0.23272,0 0.65161,0.209447 0.93087,0.465437 z"
       id="path3"
       style="fill:#073252;fill-opacity:1;stroke:none;stroke-width:0.0232718" />
    <path
       d="m 71.610906,84.418055 c -5.66361,0.911957 -11.165976,3.811517 -14.552048,7.71657 -1.189156,1.379628 -2.680639,3.390616 -2.479087,3.390616 0.06047,0 0.685275,-0.420906 1.390707,-0.91196 5.623298,-3.975204 10.641938,-5.588667 16.406322,-5.331449 4.514763,0.210452 8.565953,1.473163 16.507103,5.144381 8.686884,4.021968 16.104007,5.705577 22.352117,5.074238 2.76126,-0.28061 4.63569,-0.65475 6.28841,-1.2861 1.49149,-0.58459 3.72871,-1.89407 4.41399,-2.57219 0.34264,-0.350757 0.50388,-0.56121 0.38295,-0.491059 -0.56435,0.303986 -3.46669,0.888579 -5.78454,1.122409 -2.94266,0.30399 -6.34889,0.0468 -9.59387,-0.74827 -2.74111,-0.678125 -7.457423,-2.548809 -10.541173,-4.232423 -6.570594,-3.530917 -7.598504,-4.045354 -9.795424,-4.887162 -5.20004,-2.010985 -10.46054,-2.712491 -14.995457,-1.987601 z"
       id="path4"
       style="fill:#d45500;stroke:none;stroke-width:0.0217094" />
    <path
       d="m 126.8966,99.032781 c -1.85428,1.215929 -4.21243,2.455259 -6.79231,3.577669 -3.52715,1.54332 -8.84812,2.66572 -15.70089,3.32046 -6.147333,0.5846 -9.210923,1.33287 -12.798547,3.08663 -2.8822,1.4264 -5.20004,3.22693 -8.16286,6.33694 -4.33336,4.55979 -8.525636,6.75785 -13.50397,7.03845 l -2.418622,0.1403 0.806208,0.49106 c 3.486849,2.17467 9.231074,2.29158 14.511734,0.30398 2.64033,-1.00549 5.70392,-2.82941 7.82021,-4.7001 1.02791,-0.88856 2.761264,-2.4085 3.849644,-3.3906 3.14421,-2.73588 6.731843,-4.58318 11.024893,-5.63544 1.99536,-0.49105 4.81709,-0.88857 4.81709,-0.67812 0,0.0935 -0.60465,0.53782 -1.3504,1.00549 -2.78141,1.77715 -5.01863,3.50753 -6.32872,4.93393 -5.200043,5.70559 -3.607783,13.46892 3.44654,16.81277 3.84964,1.82391 10.07759,2.01099 13.50397,0.42091 l 0.88683,-0.42091 -1.65272,-0.4209 c -1.99537,-0.51444 -2.7008,-0.88858 -3.72872,-2.03437 -1.02791,-1.12242 -1.35039,-1.87068 -1.35039,-3.20355 0,-3.06325 2.29769,-5.77573 9.47294,-11.15395 4.69616,-3.53091 7.65897,-6.19664 9.57371,-8.6753 1.31009,-1.68362 2.66048,-3.88166 2.39846,-3.88166 -0.0604,0 -0.64496,0.49105 -1.28993,1.09902 -1.71318,1.63685 -4.77677,3.78814 -8.94889,6.31356 -4.71632,2.87617 -7.13494,4.51303 -8.88844,6.03296 -5.46206,4.74685 -6.93339,10.14846 -3.68841,13.58584 0.48373,0.51443 1.06823,1.07564 1.26978,1.21594 1.31009,0.84181 -1.35039,0.30399 -3.04343,-0.63136 -2.23722,-1.21594 -3.4667,-3.11 -3.64809,-5.63543 -0.42326,-5.28469 4.09151,-11.69178 12.03265,-17.06999 5.30081,-3.60107 8.68688,-6.66431 9.73495,-8.838979 0.20156,-0.4209 0.34264,-0.74827 0.30233,-0.72489 -0.0403,0 -1.00776,0.63136 -2.1566,1.37964 z"
       id="path5"
       style="fill:#d45500;stroke:none;stroke-width:0.0217094" />
    <path
       d="M 78.302423,98.588481 C 70.28066,99.640751 62.682155,104.2473 58.913136,110.32702 l -0.403104,0.65474 1.189155,-0.63136 c 6.40935,-3.39061 10.21868,-4.74685 15.902446,-5.72896 2.62017,-0.44429 3.66824,-0.51444 8.24347,-0.44429 13.100874,0.16368 15.841984,0.11692 17.736577,-0.30399 1.91474,-0.44429 7.05431,-2.33835 6.55044,-2.43189 -0.16125,-0.0234 -2.01552,-0.0935 -4.13182,-0.1403 -3.93026,-0.11692 -4.192283,-0.16369 -13.806317,-2.151279 -3.20467,-0.67813 -8.96906,-0.93534 -11.89156,-0.56121 z"
       id="path6"
       style="fill:#d45500;stroke:none;stroke-width:0.0217094" />
    <path
       d="m 172.83027,34.073276 c -6.22795,0.678123 -12.597,3.156779 -17.8575,6.968297 -2.80157,2.03437 -6.2481,5.261298 -7.69928,7.17875 -0.88683,1.215944 -1.04807,1.566697 -1.04807,2.385121 0,0.98211 0.36279,1.426397 1.12869,1.426397 0.1814,0 1.3504,-1.145794 2.57987,-2.525423 2.41861,-2.735875 3.99072,-4.162272 5.62329,-5.144381 1.57211,-0.935341 3.38607,-0.888574 5.26051,0.140302 3.38607,1.8473 6.77214,6.313558 8.68689,11.434553 0.90697,2.455273 1.69303,5.635437 1.83412,7.576269 0.0806,0.888577 0.20155,1.613467 0.30232,1.613467 0.20155,0 1.31009,-3.133396 1.65273,-4.793628 1.22946,-5.728969 0.74574,-11.574856 -1.37056,-16.485401 -0.84651,-1.964218 -2.29769,-4.185655 -3.20467,-4.887162 -0.4031,-0.303985 -0.72559,-0.631355 -0.72559,-0.724889 0,-0.631356 4.95818,-1.403013 8.94891,-1.403013 2.88218,0 4.39383,1.262711 5.98609,5.027462 0.44341,1.028877 1.02791,2.922944 1.31008,4.209039 0.46357,2.057752 0.52404,2.806025 0.52404,6.079722 0,3.203546 -0.0604,4.092122 -0.50388,6.196639 -0.52403,2.525424 -1.39071,5.144381 -2.25738,6.968298 -0.28217,0.584589 -0.50388,1.075645 -0.50388,1.122412 0,0.257219 2.31785,-1.449781 3.6884,-2.712491 4.91786,-4.60656 8.06208,-12.486816 7.39695,-18.519771 -0.10078,-0.982109 -0.36279,-2.408505 -0.5845,-3.156779 -0.2217,-0.748273 -0.36279,-1.403013 -0.30232,-1.44978 0.14108,-0.187068 3.74886,2.010985 5.26049,3.180163 0.80621,0.631355 2.31785,1.964218 3.38608,2.969711 2.17676,2.081135 2.25738,2.268203 2.03567,5.354831 -0.60465,8.160858 -4.63569,15.760511 -10.84349,20.437221 -1.12869,0.841806 -2.49924,1.77715 -3.06358,2.104519 l -1.02793,0.584588 3.12406,-0.1403 c 3.38607,-0.140302 4.77679,-0.420904 7.67913,-1.543315 4.19228,-1.613464 8.00161,-4.209038 10.8838,-7.412583 1.67288,-1.870684 1.7535,-1.917451 2.07599,-1.496548 0.84651,1.099026 2.33799,7.131983 2.33799,9.517104 0,1.51993 -0.48372,2.548807 -2.09614,4.442873 -3.18451,3.717985 -8.66672,6.711079 -13.92723,7.576272 -2.45893,0.420903 -7.47757,0.374136 -9.27139,-0.07016 -0.76589,-0.210452 -1.45117,-0.327369 -1.49148,-0.257219 -0.14109,0.140301 1.59226,1.917452 3.1039,3.180164 5.52252,4.583174 13.1815,6.500624 20.67922,5.191148 0.84652,-0.140301 0.96745,-0.09353 1.08838,0.350753 0.46357,1.683613 -3.70855,11.083792 -5.36127,12.089292 -0.84652,0.49105 -3.58763,0.67812 -5.72408,0.35075 -6.91323,-1.05226 -13.48382,-4.91054 -19.18774,-11.294249 l -1.26978,-1.403012 v 0.818423 c 0,0.444289 0.12093,1.590079 0.28218,2.548809 1.31008,7.950399 6.12717,15.386369 12.67761,19.548639 0.84652,0.53782 1.59226,1.09903 1.65273,1.23932 0.28217,0.49106 -0.86668,1.47317 -3.42639,2.92295 -2.78141,1.56669 -5.94578,2.89956 -6.87292,2.89956 -1.12868,0 -2.72095,-1.21594 -4.91786,-3.74137 -2.43878,-2.8294 -3.80933,-5.02746 -5.24035,-8.46483 -1.55195,-3.74138 -2.03567,-5.9862 -2.19692,-10.05493 l -0.12093,-3.437379 -1.14884,1.800519 c -4.67601,7.27229 -5.48221,16.34511 -2.15661,23.94475 1.00776,2.33836 1.02792,2.89956 0.0605,3.11002 -0.92713,0.18707 -3.99073,-0.0701 -5.82485,-0.49105 -3.04343,-0.7249 -4.35351,-2.01099 -5.20004,-5.09762 -0.36279,-1.37963 -0.44341,-2.19805 -0.44341,-4.81701 0.0202,-4.70009 0.8062,-7.8101 3.12406,-12.25298 2.21706,-4.23242 5.2605,-7.786709 8.80781,-10.218602 4.03104,-2.759258 6.81245,-6.103107 7.63881,-9.213118 1.1287,-4.232424 0.0604,-7.833489 -2.80156,-9.470338 -1.79382,-1.028875 -3.52716,-1.052258 -6.18765,-0.09353 -1.73335,0.607974 -2.17676,0.678124 -4.73647,0.678124 -2.41862,0 -3.12405,-0.09353 -4.93802,-0.65474 -7.31633,-2.221437 -13.12103,-8.324542 -14.73344,-15.550059 -0.32248,-1.426395 -0.40311,-2.408505 -0.36279,-4.606559 0.0403,-1.543313 0,-3.039861 -0.10077,-3.343846 -0.1814,-0.631357 -1.26978,-1.309479 -2.7008,-1.660233 -3.80933,-0.935341 -8.1427,0.795041 -13.88692,5.588669 -1.7132,1.403012 -3.91011,3.507532 -8.72721,8.301159 -11.16597,11.107184 -16.12415,14.708252 -24.024993,17.420743 -2.237224,0.771656 -2.680634,1.099025 -2.499244,1.800534 0.16125,0.607972 2.09614,2.244818 3.829494,3.273696 3.38607,1.987601 9.775263,3.811517 14.733453,4.232422 2.47909,0.210452 7.63882,0.04677 9.89619,-0.303988 1.45117,-0.233835 4.09151,-0.795039 4.95818,-1.052258 0.72559,-0.233836 0.74575,-0.280603 0.52403,-0.888575 -0.14108,-0.350754 -0.24185,-1.870684 -0.24185,-3.5543 0,-2.431889 0.0806,-3.180162 0.44341,-4.396108 1.14884,-3.741366 3.54731,-6.827994 6.63106,-8.51161 1.7535,-0.958724 3.28529,-1.332861 5.40159,-1.332861 4.03103,-0.02338 6.91322,1.473162 11.38768,5.93942 4.4946,4.442875 6.67136,5.892653 10.78302,7.155367 1.26978,0.374136 2.37832,0.491053 5.15973,0.561204 4.01088,0.09353 4.91787,0.350753 5.13957,1.403014 0.30233,1.426395 -0.90698,2.922943 -3.84964,4.840392 -0.88683,0.584591 -4.51476,2.735877 -8.06208,4.793632 -9.63417,5.565279 -14.08847,8.488219 -19.34898,12.673869 -2.57986,2.05775 -7.35664,6.29018 -7.35664,6.52401 0,0.23384 3.80933,3.48414 5.94579,5.09761 2.35814,1.77716 7.33648,4.67672 9.87603,5.75236 6.55044,2.80602 13.26211,4.20903 20.25597,4.2558 5.6636,0.0468 9.61402,-0.44428 14.41096,-1.77715 20.5986,-5.6822 34.0421,-23.50046 34.88863,-46.252645 0.48368,-13.048015 -3.7086,-25.628363 -11.62959,-34.818099 -8.48533,-9.844472 -19.99395,-14.6381 -32.02659,-13.305238 z"
       id="path28"
       style="fill:#d45500;stroke:none;stroke-width:0.0217094" />
    <path
       d="m 71.610906,84.418055 c -5.66361,0.911957 -11.165976,3.811517 -14.552048,7.71657 -1.189156,1.379628 -2.680639,3.390616 -2.479087,3.390616 0.06047,0 0.685275,-0.420906 1.390707,-0.91196 5.623298,-3.975204 10.641938,-5.588667 16.406322,-5.331449 4.514763,0.210452 8.565953,1.473163 16.507103,5.144381 8.686884,4.021968 16.104007,5.705577 22.352117,5.074238 2.76126,-0.28061 4.63569,-0.65475 6.28841,-1.2861 1.49149,-0.58459 3.72871,-1.89407 4.41399,-2.57219 0.34264,-0.350757 0.50388,-0.56121 0.38295,-0.491059 -0.56435,0.303986 -3.46669,0.888579 -5.78454,1.122409 -2.94266,0.30399 -6.34889,0.0468 -9.59387,-0.74827 -2.74111,-0.678125 -7.457423,-2.548809 -10.541173,-4.232423 -6.570594,-3.530917 -7.598504,-4.045354 -9.795424,-4.887162 -5.20004,-2.010985 -10.46054,-2.712491 -14.995457,-1.987601 z"
       id="path29"
       style="fill:#d45500;stroke:none;stroke-width:0.0217094" />
    <path
       d="m 126.8966,99.032781 c -1.85428,1.215929 -4.21243,2.455259 -6.79231,3.577669 -3.52715,1.54332 -8.84812,2.66572 -15.70089,3.32046 -6.147333,0.5846 -9.210923,1.33287 -12.798547,3.08663 -2.8822,1.4264 -5.20004,3.22693 -8.16286,6.33694 -4.33336,4.55979 -8.525636,6.75785 -13.50397,7.03845 l -2.418622,0.1403 0.806208,0.49106 c 3.486849,2.17467 9.231074,2.29158 14.511734,0.30398 2.64033,-1.00549 5.70392,-2.82941 7.82021,-4.7001 1.02791,-0.88856 2.761264,-2.4085 3.849644,-3.3906 3.14421,-2.73588 6.731843,-4.58318 11.024893,-5.63544 1.99536,-0.49105 4.81709,-0.88857 4.81709,-0.67812 0,0.0935 -0.60465,0.53782 -1.3504,1.00549 -2.78141,1.77715 -5.01863,3.50753 -6.32872,4.93393 -5.200043,5.70559 -3.607783,13.46892 3.44654,16.81277 3.84964,1.82391 10.07759,2.01099 13.50397,0.42091 l 0.88683,-0.42091 -1.65272,-0.4209 c -1.99537,-0.51444 -2.7008,-0.88858 -3.72872,-2.03437 -1.02791,-1.12242 -1.35039,-1.87068 -1.35039,-3.20355 0,-3.06325 2.29769,-5.77573 9.47294,-11.15395 4.69616,-3.53091 7.65897,-6.19664 9.57371,-8.6753 1.31009,-1.68362 2.66048,-3.88166 2.39846,-3.88166 -0.0604,0 -0.64496,0.49105 -1.28993,1.09902 -1.71318,1.63685 -4.77677,3.78814 -8.94889,6.31356 -4.71632,2.87617 -7.13494,4.51303 -8.88844,6.03296 -5.46206,4.74685 -6.93339,10.14846 -3.68841,13.58584 0.48373,0.51443 1.06823,1.07564 1.26978,1.21594 1.31009,0.84181 -1.35039,0.30399 -3.04343,-0.63136 -2.23722,-1.21594 -3.4667,-3.11 -3.64809,-5.63543 -0.42326,-5.28469 4.09151,-11.69178 12.03265,-17.06999 5.30081,-3.60107 8.68688,-6.66431 9.73495,-8.838979 0.20156,-0.4209 0.34264,-0.74827 0.30233,-0.72489 -0.0403,0 -1.00776,0.63136 -2.1566,1.37964 z"
       id="path30"
       style="fill:#d45500;stroke:none;stroke-width:0.0217094" />
    <path
       d="M 78.302423,98.588481 C 70.28066,99.640751 62.682155,104.2473 58.913136,110.32702 l -0.403104,0.65474 1.189155,-0.63136 c 6.40935,-3.39061 10.21868,-4.74685 15.902446,-5.72896 2.62017,-0.44429 3.66824,-0.51444 8.24347,-0.44429 13.100874,0.16368 15.841984,0.11692 17.736577,-0.30399 1.91474,-0.44429 7.05431,-2.33835 6.55044,-2.43189 -0.16125,-0.0234 -2.01552,-0.0935 -4.13182,-0.1403 -3.93026,-0.11692 -4.192283,-0.16369 -13.806317,-2.151279 -3.20467,-0.67813 -8.96906,-0.93534 -11.89156,-0.56121 z"
       id="path31"
       style="fill:#d45500;stroke:none;stroke-width:0.0217094" />
    <ellipse
       style="fill:#ffffff;fill-opacity:1;stroke:#fdfdfd;stroke-width:1.56993;stroke-dasharray:none;stroke-opacity:1"
       id="path42"
       cx="141.07506"
       cy="81.229713"
       rx="2.3184993"
       ry="2.2925913" />
    <ellipse
       style="fill:#ffffff;fill-opacity:1;stroke:#fdfdfd;stroke-width:1.92492;stroke-dasharray:none;stroke-opacity:1"
       id="path43"
       ry="0.55204922"
       rx="0.55248106"
       cy="87.469803"
       cx="133.86203" />
    <text
       xml:space="preserve"
       transform="matrix(6.1748612,0,0,6.1748612,-6438.5037,-350.72687)"
       id="text1"
       style="font-style:normal;font-variant:normal;font-weight:normal;font-stretch:normal;font-size:10.3646px;font-family:'Helvetica Neue';-inkscape-font-specification:'Helvetica Neue';writing-mode:lr-tb;direction:ltr;white-space:pre;shape-inside:url(#rect1);display:inline;fill:#073252;fill-opacity:1;stroke:none;stroke-width:0;stroke-linecap:round;stroke-linejoin:round;stroke-dasharray:none"><tspan
         x="1047.0137"
         y="90.190969"
         id="tspan4"><tspan
           style="font-family:'Inter 28pt';-inkscape-font-specification:'Inter 28pt'"
           id="tspan1">Cambra</tspan></tspan></text>
    <text
       xml:space="preserve"
       style="font-size:9px;writing-mode:lr-tb;direction:ltr;fill:#b1b1b1;fill-opacity:1;stroke:#fdfdfd;stroke-width:30.1;stroke-linecap:round;stroke-linejoin:round"
       x="866.11029"
       y="60.308044"
       id="text2"><tspan
         sodipodi:role="line"
         id="tspan2"
         style="stroke-width:30.1"
         x="866.11029"
         y="60.308044" /></text>
  </g>
</svg>
