<?xml version="1.0" encoding="UTF-8" standalone="no"?>
<svg
   version="1.0"
   width="431.21188pt"
   height="77.932503pt"
   viewBox="0 0 431.21189 77.932504"
   preserveAspectRatio="xMidYMid"
   id="svg6"
   sodipodi:docname="nautilus-cambra.svg"
   inkscape:version="1.4.3 (0d15f75, 2025-12-25)"
   inkscape:export-filename="nautilus-cambra-export.svg"
   inkscape:export-xdpi="147.6284"
   inkscape:export-ydpi="147.6284"
   xmlns:inkscape="http://www.inkscape.org/namespaces/inkscape"
   xmlns:sodipodi="http://sodipodi.sourceforge.net/DTD/sodipodi-0.dtd"
   xmlns="http://www.w3.org/2000/svg"
   xmlns:svg="http://www.w3.org/2000/svg">
  <defs
     id="defs6">
    <rect
       x="1047.0129"
       y="80.424889"
       width="1306.1598"
       height="417.01797"
       id="rect1" />
  </defs>
  <sodipodi:namedview
     id="namedview6"
     pagecolor="#ffffff"
     bordercolor="#000000"
     borderopacity="0.25"
     inkscape:showpageshadow="2"
     inkscape:pageopacity="0.0"
     inkscape:pagecheckerboard="true"
     inkscape:deskcolor="#d1d1d1"
     inkscape:document-units="pt"
     showguides="true"
     inkscape:lockguides="false"
     inkscape:zoom="1.3616183"
     inkscape:cx="435.14398"
     inkscape:cy="74.543652"
     inkscape:window-width="1868"
     inkscape:window-height="1218"
     inkscape:window-x="2893"
     inkscape:window-y="30"
     inkscape:window-maximized="0"
     inkscape:current-layer="layer2" />
  <g
     inkscape:groupmode="layer"
     id="layer1"
     inkscape:label="Layer 1"
     transform="translate(-183.23136,-290.385)">
    <path
       id="path32"
       style="display:inline;fill:#000000;stroke:#fdfdfd;stroke-width:4.80392;stroke-linecap:round;stroke-linejoin:round;stroke-dasharray:none;stroke-opacity:1"
       d="m 275.87491,292.79 c -1.09011,-0.0167 -2.18994,0.0354 -3.29567,0.15789 -4.57851,0.49852 -9.26068,2.32085 -13.12797,5.12291 -2.05959,1.49557 -4.59335,3.86789 -5.66019,5.27752 -0.65196,0.89391 -0.77052,1.15171 -0.77052,1.75338 0,0.72201 0.26672,1.04856 0.82977,1.04856 0.13336,0 0.99272,-0.84239 1.89658,-1.85663 1.77806,-2.01129 2.93393,-3.05975 4.13412,-3.78175 1.15574,-0.68762 2.48916,-0.65339 3.86715,0.103 2.48929,1.35805 4.9786,4.64159 6.38622,8.40632 0.66678,1.805 1.24481,4.14281 1.34853,5.56963 0.0574,0.63282 0.14247,1.15265 0.21509,1.18453 5.2e-4,2.9e-4 0.001,3.9e-4 0.002,3.9e-4 0.002,3.9e-4 0.004,3.9e-4 0.005,3.9e-4 h 0.002 c 0.003,-2.9e-4 0.006,-0.002 0.01,-0.004 0.17456,-0.10364 0.95733,-2.3282 1.20332,-3.52012 0.90384,-4.21168 0.54826,-8.50931 -1.00754,-12.11932 -0.62232,-1.44401 -1.68908,-3.07717 -2.35585,-3.59289 -0.29634,-0.22347 -0.5335,-0.46408 -0.5335,-0.53283 0,-0.46415 3.64515,-1.03144 6.57895,-1.03144 2.11886,0 3.23011,0.9282 4.40066,3.69588 0.32598,0.75638 0.75561,2.14882 0.96305,3.0943 0.34079,1.51276 0.38526,2.06278 0.38526,4.46944 0,2.35511 -0.0443,3.00844 -0.37028,4.55558 -0.38525,1.85658 -1.02242,3.7818 -1.65956,5.12266 -0.20744,0.42976 -0.3705,0.79081 -0.3705,0.8252 0,0.0177 0.015,0.0228 0.043,0.0166 0.009,-0.002 0.02,-0.005 0.0321,-0.01 0.33992,-0.12621 1.75486,-1.18867 2.63648,-2.00092 3.6154,-3.38653 5.92691,-9.17969 5.43794,-13.61484 -0.0741,-0.72201 -0.26676,-1.77063 -0.42975,-2.32073 -0.16299,-0.55009 -0.26671,-1.03129 -0.22226,-1.06567 0.10372,-0.13753 2.75608,1.47831 3.86737,2.33784 0.59269,0.46414 1.7038,1.44404 2.48911,2.18323 1.60026,1.52996 1.65954,1.66747 1.49655,3.93661 -0.44452,5.9995 -3.40785,11.5864 -7.97154,15.02451 -0.82977,0.61887 -1.83743,1.30648 -2.25232,1.54715 l -0.75554,0.42984 2.29659,-0.10324 c 2.48929,-0.10314 3.51176,-0.30953 5.64544,-1.13468 3.08197,-1.18614 5.88242,-3.09415 8.00127,-5.44926 1.22983,-1.37524 1.289,-1.4096 1.52607,-1.10017 0.62232,0.80795 1.71881,5.24297 1.71881,6.99641 0,1.11738 -0.35567,1.87385 -1.54104,3.26628 -2.34112,2.73329 -6.37134,4.93358 -10.23862,5.56963 -1.8077,0.30943 -5.49725,0.27525 -6.81598,-0.0514 -0.56305,-0.15472 -1.06668,-0.24068 -1.09631,-0.18911 -0.10372,0.10314 1.17054,1.40955 2.28183,2.33785 4.05991,3.36934 9.69031,4.77891 15.2023,3.81624 0.62232,-0.10314 0.71135,-0.0688 0.80026,0.25785 0.3408,1.23773 -2.72638,8.14835 -3.94138,8.88754 -0.62233,0.361 -2.63752,0.49853 -4.20814,0.25786 -5.08229,-0.77357 -9.91273,-3.61006 -14.10599,-8.30307 l -0.93353,-1.03143 v 0.60158 c 0,0.32662 0.089,1.16919 0.2075,1.874 0.96311,5.84478 4.50448,11.31113 9.32007,14.37105 0.62232,0.39538 1.17058,0.80817 1.21504,0.91132 0.20744,0.361 -0.63729,1.08292 -2.51907,2.14873 -2.04477,1.15176 -4.37108,2.13161 -5.05268,2.13161 -0.82976,0 -2.0003,-0.89399 -3.61537,-2.75057 -1.79288,-2.08006 -2.80038,-3.69583 -3.8524,-6.22284 -1.14092,-2.75049 -1.49652,-4.40086 -1.61506,-7.39201 l -0.089,-2.52696 -0.84454,1.32354 c -3.43759,5.34626 -4.03016,12.01641 -1.58532,17.60334 0.74085,1.71905 0.75549,2.13151 0.0442,2.28622 -0.68159,0.13752 -2.93379,-0.0516 -4.28215,-0.36111 -2.2374,-0.5329 -3.20034,-1.47834 -3.82266,-3.7475 -0.26671,-1.01424 -0.32601,-1.61592 -0.32601,-3.54126 0.0148,-3.4553 0.59261,-5.74145 2.2966,-9.00765 1.62988,-3.11149 3.86738,-5.72457 6.47521,-7.51239 2.96343,-2.02847 5.00819,-4.4867 5.61569,-6.77304 0.82976,-3.11149 0.0445,-5.75883 -2.05957,-6.96217 -1.31873,-0.75638 -2.59304,-0.77356 -4.5489,-0.0688 -0.31857,0.11175 -0.57804,0.19873 -0.81719,0.26643 -0.71748,0.20306 -1.25358,0.23217 -2.66492,0.23217 -1.77807,0 -2.2966,-0.0689 -3.63014,-0.48147 -5.37864,-1.6331 -9.64601,-6.11975 -10.83138,-11.43162 -0.23707,-1.04862 -0.29639,-1.77074 -0.26675,-3.38665 0.0296,-1.13457 0,-2.23474 -0.074,-2.45821 -0.13336,-0.46415 -0.93355,-0.96269 -1.98557,-1.22055 -2.80044,-0.68762 -5.98619,0.58455 -10.20909,4.10861 -1.25947,1.03143 -2.87444,2.57866 -6.41574,6.10272 -8.20872,8.1655 -11.85378,10.81267 -17.66212,12.80678 -1.6447,0.56728 -1.97066,0.80807 -1.83732,1.32378 0.11854,0.44696 1.54085,1.65021 2.81512,2.4066 2.48929,1.46119 7.18635,2.80199 10.83139,3.11141 1.8225,0.15472 5.61572,0.0345 7.27524,-0.22336 1.06684,-0.1719 3.00798,-0.58448 3.64512,-0.77357 0.53342,-0.17191 0.54825,-0.20625 0.38526,-0.6532 -0.10372,-0.25786 -0.17776,-1.37537 -0.17776,-2.61309 0,-1.78781 0.0591,-2.33787 0.32579,-3.23178 0.84458,-2.75048 2.60788,-5.01962 4.87491,-6.25734 1.28909,-0.70481 2.41532,-0.97981 3.97112,-0.97981 2.96344,-0.0172 5.08215,1.08307 8.37157,4.36647 3.30423,3.2662 4.90455,4.33186 7.92726,5.26015 0.93348,0.27504 1.74837,0.36115 3.79314,0.41272 2.94862,0.0688 3.61539,0.25786 3.77838,1.03143 0.22226,1.04862 -0.66679,2.14877 -2.83009,3.5584 -0.65196,0.42976 -3.31891,2.01137 -5.92673,3.52413 -7.08261,4.09135 -10.35721,6.24003 -14.2245,9.31713 -1.8966,1.51277 -5.40841,4.62416 -5.40841,4.79606 0,0.17191 2.80051,2.56161 4.37113,3.74775 1.73361,1.30649 5.39353,3.43796 7.2605,4.22872 4.81558,2.06287 9.7497,3.09442 14.89127,3.1288 4.16363,0.0344 7.06765,-0.32681 10.59414,-1.30667 15.14316,-4.1773 25.02632,-17.27636 25.64864,-34.00275 0.35561,-9.59231 -2.7264,-18.8408 -8.54956,-25.59667 -5.45827,-6.33257 -12.61816,-9.82233 -20.24889,-9.93937 z m -20.02556,14.64124 c -0.31874,0.009 -0.63032,0.0405 -0.93222,0.0942 -0.91867,0.1719 -1.7188,0.56735 -2.00032,1.0143 -0.2519,0.39539 -0.23703,2.26924 0.0445,3.52414 0.9483,4.29764 4.59339,8.07939 9.09781,9.45463 1.40764,0.42976 4.223,0.56743 4.91941,0.22361 0.82976,-0.41257 1.0667,-0.94547 0.9778,-2.32072 -0.19262,-2.93958 -2.4596,-7.08251 -5.06743,-9.21414 -2.21702,-1.83509 -4.80833,-2.8411 -7.03954,-2.776 z m -8.97778,15.61727 c -0.80013,-0.0172 -1.61517,0.0516 -2.03006,0.18912 -2.11885,0.70481 -3.74871,2.57849 -4.3414,4.98517 -0.34079,1.34086 -0.23708,3.42106 0.22226,4.7963 0.44451,1.35806 1.85212,3.11146 3.00785,3.74751 1.22983,0.67043 2.63751,0.91099 3.82289,0.67033 2.5041,-0.49853 4.4895,-2.54412 5.08219,-5.24302 0.80013,-3.55845 -0.57775,-6.99661 -3.42264,-8.56094 -0.8594,-0.46415 -1.20016,-0.55008 -2.34109,-0.58447 z m 1.81322,2.37235 c 0.37229,0.009 0.74276,0.11178 1.01688,0.30948 0.66677,0.46414 1.03711,1.65012 0.80004,2.49246 -0.35562,1.2549 -1.55577,1.90818 -2.56334,1.40965 -1.36319,-0.65324 -1.54098,-3.16297 -0.28152,-3.95373 0.28153,-0.18051 0.65566,-0.26646 1.02794,-0.25786 z m -47.92606,4.33398 c -0.89111,0.004 -1.75788,0.071 -2.59134,0.20422 -4.16363,0.67043 -8.20861,2.80206 -10.6979,5.67287 -0.87421,1.01424 -1.97073,2.49272 -1.82255,2.49272 0.0445,0 0.5037,-0.30933 1.0223,-0.67034 4.13399,-2.92239 7.82345,-4.10859 12.06117,-3.91949 3.31905,0.15472 6.29744,1.08284 12.1354,3.78175 6.38621,2.95677 11.83877,4.19452 16.4321,3.73038 2.02995,-0.20629 3.40813,-0.48117 4.62314,-0.94531 1.09647,-0.42977 2.74109,-1.39261 3.24487,-1.89113 0.2027,-0.20749 0.31899,-0.34848 0.31038,-0.36866 l -1.7e-4,-1.6e-4 -1.7e-4,-3e-4 -1.7e-4,-2.9e-4 -1.7e-4,-2.9e-4 h -1.7e-4 c -0.004,-0.003 -0.0125,0 -0.0277,0.009 -0.41489,0.22348 -2.54844,0.65329 -4.25242,0.8252 -2.16331,0.22347 -4.66742,0.0343 -7.05299,-0.55021 -2.01513,-0.49853 -5.48247,-1.87371 -7.7495,-3.11142 -4.83041,-2.59577 -5.58595,-2.97403 -7.20102,-3.59289 -2.86713,-1.10879 -5.75943,-1.67598 -8.43278,-1.6655 z m 43.34199,1.49351 c 0.14818,0 0.41475,0.15488 0.59255,0.34398 0.17781,0.20628 0.32601,0.51554 0.32601,0.68745 0,0.44695 -0.50379,1.03143 -0.88904,1.03143 -0.16298,0 -0.42955,-0.15463 -0.59254,-0.34373 -0.16298,-0.18909 -0.29648,-0.4986 -0.29648,-0.6877 0,-0.42977 0.50389,-1.03143 0.8595,-1.03143 z m -3.70241,8.43981 c 0.4592,-0.68064 -0.001,2.9e-4 -0.002,3.9e-4 -0.0296,0 -0.74074,0.46421 -1.58532,1.01431 -1.36318,0.89391 -3.09682,1.80505 -4.99342,2.63019 -2.59301,1.13458 -6.5048,1.95976 -11.54265,2.4411 -4.51924,0.42976 -6.77138,0.97981 -9.40884,2.26909 -2.11885,1.04863 -3.82283,2.37223 -6.00095,4.65857 -3.1857,3.35216 -6.26775,4.968 -9.92759,5.17428 l -1.77807,0.10325 0.59277,0.3611 c 2.56337,1.59872 6.78627,1.68455 10.66837,0.22336 1.94105,-0.73919 4.19316,-2.08016 5.74896,-3.4554 0.75569,-0.65324 2.02997,-1.77045 2.8301,-2.49246 2.31148,-2.01129 4.94897,-3.36927 8.10503,-4.14285 1.4669,-0.361 3.54137,-0.65331 3.54137,-0.49859 0,0.0688 -0.44455,0.39527 -0.99278,0.73907 -2.04478,1.30649 -3.68955,2.57877 -4.65266,3.62739 -3.82283,4.19449 -2.65219,9.90156 2.53383,12.35981 2.83008,1.34086 7.40844,1.47843 9.92737,0.30948 l 0.65201,-0.30948 -1.21503,-0.30948 c -1.46691,-0.37819 -1.98544,-0.65319 -2.74111,-1.49553 -0.75568,-0.82514 -0.99278,-1.37511 -0.99278,-2.35496 0,-2.25197 1.68908,-4.24602 6.964,-8.19984 3.4524,-2.59577 5.6306,-4.5555 7.03823,-6.3777 0.96312,-1.23772 1.95593,-2.85381 1.7633,-2.85381 -0.0445,0 -0.47413,0.36112 -0.94828,0.80807 -1.25946,1.20334 -3.5118,2.78486 -6.57896,4.64144 -3.46722,2.11444 -5.24515,3.31783 -6.53425,4.43521 -4.01546,3.48968 -5.09715,7.46071 -2.71158,9.98771 0.35561,0.3782 0.78535,0.79055 0.93352,0.89369 0.19188,0.12329 0.26789,0.20635 0.25677,0.25484 -1.7e-4,0.001 -3.9e-4,0.002 -5.2e-4,0.003 -0.0581,0.18855 -1.50164,-0.174 -2.49346,-0.72195 -1.64471,-0.89391 -2.5485,-2.28627 -2.68185,-4.14285 -0.31117,-3.88506 3.00784,-8.59535 8.84581,-12.54917 3.89692,-2.64734 6.38625,-4.8991 7.15675,-6.49782 0.13659,-0.28526 0.23542,-0.51235 0.22681,-0.53259 l -1.7e-4,-2.9e-4 -1.7e-4,-2.9e-4 v -2.9e-4 h -1.7e-4 l -1.7e-4,-2.9e-4 h -1.8e-4 l -1.7e-4,-1.7e-4 h -1.7e-4 -1.7e-4 -1.7e-4 -1.7e-4 c 0.0253,0 0.44843,0 0.44825,0 z m -33.0183,0.6046 c -1.62248,-0.0752 -3.21897,-0.0537 -4.29322,0.0839 -5.89724,0.77357 -11.48342,4.16014 -14.25423,8.62968 l -0.29627,0.48122 0.87427,-0.4641 c 4.71186,-2.49262 7.51222,-3.48959 11.69067,-4.2116 1.92623,-0.32661 2.69671,-0.37817 6.06022,-0.3266 9.63117,0.12033 11.64637,0.0858 13.03919,-0.22361 1.40763,-0.32662 5.18587,-1.71912 4.81544,-1.78788 -0.11854,-0.0172 -1.48157,-0.0686 -3.03738,-0.10299 -2.88935,-0.086 -3.08204,-0.12046 -10.14984,-1.58165 -1.17796,-0.24926 -2.82636,-0.42112 -4.44885,-0.49633 z"
       sodipodi:nodetypes="scccsscccccssscccscssccsccsssccscccccccccccscccccccccccsccccscccccccccccccccssccccccccccscccsccccccccccscccccsssscccscccscccccccccsccccscccscccccccccccccccccccscsssssccccccccccccccscccccccsccscccccsccccccccccccccccsccsccccccccccs"
       inkscape:export-filename="nautilus-cambra-export.svg"
       inkscape:export-xdpi="96"
       inkscape:export-ydpi="96" />
    <path
       style="fill:#ffffff;fill-opacity:1;stroke:#fdfdfd;stroke-width:2.92475;stroke-dasharray:none;stroke-opacity:1"
       id="path44"
       sodipodi:type="arc"
       sodipodi:cx="274.19522"
       sodipodi:cy="327.79065"
       sodipodi:rx="29.236471"
       sodipodi:ry="33.640255"
       sodipodi:start="0"
       sodipodi:end="6.2786838"
       sodipodi:arc-type="slice"
       d="m 303.43169,327.79065 a 29.236471,33.640255 0 0 1 -29.20357,33.64023 29.236471,33.640255 0 0 1 -29.2693,-33.56451 29.236471,33.640255 0 0 1 29.13769,-33.71578 29.236471,33.640255 0 0 1 29.33489,33.48863 l -29.23618,0.15143 z" />
    <path
       style="fill:#ffffff;fill-opacity:1;stroke:#fdfdfd;stroke-width:1.61194;stroke-dasharray:none;stroke-opacity:1"
       id="path45"
       sodipodi:type="arc"
       sodipodi:cx="245.28516"
       sodipodi:cy="328.47577"
       sodipodi:rx="15.921753"
       sodipodi:ry="14.969684"
       sodipodi:start="0"
       sodipodi:end="6.2786838"
       sodipodi:arc-type="slice"
       d="m 261.20691,328.47577 a 15.921753,14.969684 0 0 1 -15.90384,14.96967 15.921753,14.969684 0 0 1 -15.93963,-14.93598 15.921753,14.969684 0 0 1 15.86796,-15.00329 15.921753,14.969684 0 0 1 15.97535,14.90221 l -15.92159,0.0674 z" />
    <path
       style="fill:#ffffff;fill-opacity:1;stroke:#fdfdfd;stroke-width:2.26317;stroke-dasharray:none;stroke-opacity:1"
       id="path46"
       sodipodi:type="arc"
       sodipodi:cx="192.52861"
       sodipodi:cy="329.90808"
       sodipodi:rx="17.038"
       sodipodi:ry="8.7231293"
       sodipodi:start="0"
       sodipodi:end="6.2786838"
       sodipodi:arc-type="slice"
       d="m 209.56661,329.90808 a 17.038,8.7231293 0 0 1 -17.01883,8.72312 17.038,8.7231293 0 0 1 -17.05713,-8.70349 17.038,8.7231293 0 0 1 16.98044,-8.74271 17.038,8.7231293 0 0 1 17.09535,8.68381 l -17.03783,0.0393 z"
       transform="matrix(0.99981491,0.01923913,0.14027853,0.99011208,0,0)" />
    <path
       style="fill:#ffffff;fill-opacity:1;stroke:#fdfdfd;stroke-width:2.24926;stroke-dasharray:none;stroke-opacity:1"
       id="path47"
       sodipodi:type="arc"
       sodipodi:cx="-63.73106"
       sodipodi:cy="422.87421"
       sodipodi:rx="18.190557"
       sodipodi:ry="8.0702028"
       sodipodi:start="0"
       sodipodi:end="6.2786838"
       sodipodi:arc-type="slice"
       d="m -45.540503,422.87421 a 18.190557,8.0702028 0 0 1 -18.170086,8.07019 18.190557,8.0702028 0 0 1 -18.210982,-8.05203 18.190557,8.0702028 0 0 1 18.129097,-8.08832 18.190557,8.0702028 0 0 1 18.251787,8.03383 l -18.190373,0.0363 z"
       transform="matrix(0.7227279,-0.69113268,0.71383778,0.7003111,0,0)" />
  </g>
  <g
     inkscape:groupmode="layer"
     id="layer2"
     inkscape:label="Layer 2"
     transform="translate(-88.466182,-44.171447)">
    <path
       d="m 177.81414,46.734376 c -4.57851,0.498526 -9.26074,2.320721 -13.12803,5.122778 -2.05959,1.495576 -4.59332,3.867869 -5.66016,5.277492 -0.65196,0.893908 -0.77049,1.151765 -0.77049,1.753434 0,0.722002 0.26671,1.048623 0.82975,1.048623 0.13336,0 0.99276,-0.842337 1.8966,-1.856577 1.77807,-2.011293 2.93381,-3.059915 4.134,-3.781917 1.15574,-0.687621 2.48929,-0.65324 3.86729,0.103143 2.48928,1.358052 4.97857,4.641443 6.3862,8.406168 0.66677,1.805007 1.24464,4.142918 1.34837,5.569733 0.0593,0.653239 0.14817,1.186148 0.22225,1.186148 0.14817,0 0.96312,-2.303532 1.21501,-3.524061 0.90385,-4.211678 0.54824,-8.509311 -1.00757,-12.119323 -0.62232,-1.444004 -1.68916,-3.077104 -2.35592,-3.59282 -0.29635,-0.223477 -0.53343,-0.464145 -0.53343,-0.532906 0,-0.464145 3.64503,-1.031432 6.57883,-1.031432 2.11886,0 3.23015,0.928288 4.40071,3.695963 0.32597,0.756384 0.75567,2.148817 0.96311,3.094296 0.3408,1.512766 0.38525,2.062863 0.38525,4.469537 0,2.355101 -0.0445,3.008344 -0.37043,4.555489 -0.38525,1.856578 -1.02239,3.781917 -1.65952,5.122775 -0.20744,0.429765 -0.37044,0.790769 -0.37044,0.825147 0,0.189097 1.70398,-1.06581 2.71155,-1.994098 3.61539,-3.386533 5.92687,-9.179743 5.43791,-13.6149 -0.0741,-0.722002 -0.26671,-1.770624 -0.4297,-2.320721 -0.16299,-0.550097 -0.26671,-1.031432 -0.22226,-1.065813 0.10372,-0.137524 2.756,1.478385 3.86729,2.337912 0.59268,0.464144 1.70397,1.444004 2.48928,2.183197 1.60026,1.529957 1.65953,1.667481 1.49654,3.936631 -0.44452,5.999495 -3.40795,11.586417 -7.97164,15.024521 -0.82977,0.618858 -1.83734,1.306483 -2.25222,1.54715 l -0.75567,0.429765 2.29665,-0.103144 c 2.4893,-0.103145 3.51168,-0.309429 5.64536,-1.134576 3.08197,-1.186146 5.88242,-3.094296 8.00127,-5.449399 1.22983,-1.37524 1.2891,-1.409621 1.52617,-1.100191 0.62232,0.807954 1.71879,5.243107 1.71879,6.996547 0,1.117379 -0.35561,1.873765 -1.54098,3.266195 -2.34111,2.733296 -6.37139,4.933681 -10.23868,5.569731 -1.80769,0.309434 -5.49717,0.275051 -6.8159,-0.0516 -0.56305,-0.154714 -1.06683,-0.240667 -1.09647,-0.189093 -0.10372,0.10314 1.17056,1.409622 2.28185,2.337909 4.0599,3.369345 9.69044,4.778972 15.20243,3.816302 0.62232,-0.103145 0.71122,-0.06877 0.80012,0.257854 0.3408,1.237721 -2.72635,8.148312 -3.94136,8.887515 -0.62232,0.36099 -2.63746,0.49852 -4.20809,0.25785 -5.08229,-0.773577 -9.91269,-3.610012 -14.10595,-8.303031 l -0.93349,-1.031426 v 0.601666 c 0,0.326615 0.0889,1.168959 0.20744,1.873765 0.96312,5.844782 4.50443,11.311376 9.32001,14.371286 0.62232,0.39538 1.17056,0.80795 1.21501,0.9111 0.20744,0.361 -0.63714,1.083 -2.51892,2.14882 -2.04477,1.15176 -4.37107,2.13162 -5.05266,2.13162 -0.82976,0 -2.00032,-0.89391 -3.6154,-2.75048 -1.79287,-2.08006 -2.80044,-3.69597 -3.85246,-6.22297 -1.14093,-2.75049 -1.49654,-4.400787 -1.61508,-7.391937 l -0.0889,-2.527006 -0.84458,1.323668 c -3.43758,5.346255 -4.03027,12.016185 -1.58544,17.603115 0.74086,1.71905 0.75568,2.13162 0.0445,2.28634 -0.68159,0.13752 -2.93381,-0.0516 -4.28217,-0.361 -2.2374,-0.53291 -3.20051,-1.47839 -3.82283,-3.74754 -0.26671,-1.01424 -0.32598,-1.61592 -0.32598,-3.54125 0.0148,-3.4553 0.59269,-5.74164 2.29666,-9.007842 1.62989,-3.111486 3.86729,-5.724446 6.47511,-7.512263 2.96344,-2.028479 5.00821,-4.486724 5.61571,-6.773063 0.82977,-3.111486 0.0445,-5.758834 -2.05959,-6.962172 -1.31872,-0.75638 -2.593,-0.773567 -4.54887,-0.06876 -1.27428,0.446957 -1.60025,0.498527 -3.48204,0.498527 -1.77806,0 -2.29666,-0.06876 -3.63021,-0.481335 -5.37864,-1.633103 -9.64599,-6.119829 -10.83136,-11.431702 -0.23707,-1.048621 -0.29635,-1.770626 -0.26671,-3.386536 0.0296,-1.134572 0,-2.234768 -0.0741,-2.458244 -0.13336,-0.464144 -0.93348,-0.96267 -1.98551,-1.220528 -2.80044,-0.687621 -5.98614,0.584479 -10.20904,4.108538 -1.25946,1.03143 -2.87453,2.578578 -6.41584,6.102638 -8.20871,8.165502 -11.85374,10.812845 -17.66208,12.806947 -1.64471,0.567282 -1.97068,0.80795 -1.83733,1.323668 0.11854,0.446957 1.54098,1.65029 2.81526,2.40667 2.48929,1.461197 7.18634,2.802057 10.83137,3.111486 1.82251,0.154715 5.61571,0.03441 7.27524,-0.22347 1.06683,-0.171912 3.00788,-0.58448 3.64502,-0.773578 0.53342,-0.171906 0.54823,-0.206284 0.38525,-0.653241 -0.10372,-0.257859 -0.17781,-1.375244 -0.17781,-2.612959 0,-1.787812 0.0593,-2.337914 0.32598,-3.231823 0.84458,-2.750482 2.60782,-5.019629 4.87485,-6.25735 1.2891,-0.704811 2.4152,-0.979856 3.97101,-0.979856 2.96344,-0.01718 5.08229,1.083001 8.37171,4.366393 3.30423,3.266195 4.90449,4.33201 7.92719,5.260297 0.93348,0.275051 1.74843,0.361004 3.7932,0.412579 2.94862,0.06876 3.61539,0.257854 3.77838,1.031431 0.22226,1.048618 -0.66677,2.148816 -2.83008,3.558433 -0.65196,0.42977 -3.31905,2.011298 -5.92687,3.524065 -7.08262,4.091347 -10.35721,6.240158 -14.2245,9.31726 -1.8966,1.51277 -5.40828,4.62426 -5.40828,4.79617 0,0.1719 2.80046,2.56138 4.37108,3.74753 1.7336,1.30648 5.39345,3.4381 7.26042,4.22887 4.81558,2.06286 9.7497,3.09429 14.89127,3.12868 4.16362,0.0344 7.0678,-0.32662 10.59428,-1.30649 15.14317,-4.17729 25.02623,-17.27648 25.64855,-34.002865 0.3556,-9.59229 -2.72638,-18.840793 -8.54953,-25.596671 -6.23803,-7.237212 -14.69864,-10.761271 -23.5445,-9.781411 z"
       id="path1"
       style="fill:#d45500;stroke:none;stroke-width:0.0159598" />
    <path
       d="m 160.15206,61.311946 c -0.91867,0.171904 -1.7188,0.567285 -2.00033,1.014241 -0.25189,0.395381 -0.23707,2.269147 0.0445,3.524056 0.9483,4.297633 4.59332,8.079551 9.09774,9.454795 1.40764,0.42976 4.2229,0.567288 4.91931,0.223476 0.82977,-0.412574 1.06684,-0.945479 0.97794,-2.320722 -0.19263,-2.939582 -2.45966,-7.0825 -5.06748,-9.214125 -2.53374,-2.097243 -5.55645,-3.111486 -7.97164,-2.681721 z"
       id="path2"
       style="fill:#d45500;stroke:none;stroke-width:0.0159598" />
    <path
       d="m 150.02602,77.053281 c -2.44651,0.701442 -4.32843,2.566258 -5.01277,4.961437 -0.39349,1.334451 -0.27373,3.404562 0.25663,4.773235 0.51326,1.351565 2.13855,3.096621 3.47301,3.72963 1.41999,0.667231 3.04529,0.906743 4.41396,0.667231 2.89132,-0.496147 5.18385,-2.532046 5.86817,-5.218062 0.92386,-3.541434 -0.66722,-6.963114 -3.95203,-8.519979 -0.99228,-0.461925 -1.38578,-0.547472 -2.70312,-0.581684 -0.92386,-0.01713 -1.86482,0.05134 -2.34385,0.188192 z m 5.61155,2.480711 c 0.76988,0.46193 1.19758,1.642407 0.92385,2.480726 -0.4106,1.24891 -1.79638,1.899027 -2.95975,1.402885 -1.57398,-0.650123 -1.77928,-3.147947 -0.32506,-3.934931 0.65012,-0.359281 1.72795,-0.342172 2.36096,0.05134 z m -5.78264,5.833968 c 0.2053,0.2053 0.37639,0.51325 0.37639,0.684334 0,0.444822 -0.58169,1.026506 -1.02651,1.026506 -0.18819,0 -0.49615,-0.153975 -0.68433,-0.342172 -0.1882,-0.188192 -0.34218,-0.496142 -0.34218,-0.684334 0,-0.427709 0.58169,-1.026506 0.99229,-1.026506 0.17109,0 0.47904,0.15398 0.68434,0.342172 z"
       id="path3"
       style="fill:#073252;fill-opacity:1;stroke:none;stroke-width:0.0171084" />
    <path
       d="m 103.40224,83.745587 c -4.163629,0.670428 -8.208718,2.802052 -10.698008,5.672871 -0.874214,1.01424 -1.970686,2.492633 -1.822514,2.492633 0.04445,0 0.503784,-0.309434 1.022387,-0.670433 4.133995,-2.922393 7.823473,-4.108539 12.061185,-3.919441 3.31905,0.154714 6.2973,1.083001 12.13528,3.781919 6.3862,2.956766 11.83893,4.194487 16.43225,3.730344 2.02996,-0.20629 3.40795,-0.481335 4.62296,-0.945484 1.09647,-0.42976 2.74118,-1.39243 3.24497,-1.890957 0.25189,-0.257854 0.37043,-0.412574 0.28153,-0.360999 -0.41488,0.223476 -2.54857,0.653236 -4.25254,0.825148 -2.1633,0.223476 -4.66741,0.03441 -7.05298,-0.550097 -2.01513,-0.498532 -5.48236,-1.87377 -7.74939,-3.111486 -4.8304,-2.595773 -5.58607,-2.973963 -7.20115,-3.592821 -3.82283,-1.478388 -7.69011,-1.994101 -11.02398,-1.461197 z"
       id="path4"
       style="fill:#d45500;stroke:none;stroke-width:0.0159598" />
    <path
       d="m 144.04577,94.489667 c -1.36317,0.893909 -3.09678,1.805009 -4.99339,2.630151 -2.593,1.134577 -6.50474,1.959719 -11.54259,2.441054 -4.51923,0.429765 -6.77145,0.979858 -9.4089,2.269148 -2.11886,1.04863 -3.82284,2.37229 -6.00097,4.65863 -3.18569,3.35216 -6.26766,4.96807 -9.92751,5.17435 l -1.77806,0.10315 0.59269,0.361 c 2.56337,1.59872 6.78627,1.68467 10.66837,0.22348 1.94105,-0.7392 4.19326,-2.08006 5.74907,-3.4553 0.75567,-0.65324 2.02995,-1.77063 2.83008,-2.49262 2.31148,-2.0113 4.94894,-3.36935 8.105,-4.14293 1.4669,-0.36099 3.54131,-0.65324 3.54131,-0.49852 0,0.0688 -0.44452,0.39538 -0.99276,0.73919 -2.04477,1.30648 -3.68947,2.57858 -4.65259,3.62721 -3.82283,4.19448 -2.65227,9.90174 2.53374,12.35999 2.83008,1.34086 7.40859,1.47838 9.92751,0.30943 l 0.65195,-0.30943 -1.21501,-0.30943 c -1.46689,-0.3782 -1.9855,-0.65325 -2.74117,-1.49558 -0.75568,-0.82515 -0.99275,-1.37524 -0.99275,-2.3551 0,-2.25196 1.68915,-4.24606 6.96408,-8.19988 3.4524,-2.59577 5.63052,-4.5555 7.03816,-6.377691 0.96311,-1.237721 1.95587,-2.853632 1.76324,-2.853632 -0.0445,0 -0.47415,0.361004 -0.9483,0.807956 -1.25946,1.203337 -3.51167,2.784867 -6.57883,4.641447 -3.46722,2.11443 -5.24528,3.31777 -6.53437,4.43515 -4.01547,3.48968 -5.09711,7.46069 -2.71155,9.98771 0.35561,0.37819 0.78531,0.79076 0.93348,0.8939 0.96312,0.61886 -0.99275,0.22348 -2.2374,-0.46414 -1.64471,-0.89391 -2.54855,-2.28634 -2.68191,-4.14293 -0.31115,-3.88505 3.00789,-8.59526 8.84586,-12.54908 3.89692,-2.647337 6.38621,-4.899298 7.1567,-6.498018 0.14818,-0.309434 0.2519,-0.550096 0.22227,-0.532904 -0.0296,0 -0.74087,0.464138 -1.58545,1.014239 z"
       id="path5"
       style="fill:#d45500;stroke:none;stroke-width:0.0159598" />
    <path
       d="m 108.32154,94.163047 c -5.89724,0.773577 -11.483315,4.160109 -14.254129,8.629643 l -0.296344,0.48133 0.874217,-0.46413 c 4.711862,-2.49263 7.512306,-3.489686 11.690756,-4.211688 1.92624,-0.326621 2.69673,-0.378191 6.06023,-0.326621 9.63117,0.120342 11.6463,0.08595 13.03912,-0.223471 1.40764,-0.326625 5.18601,-1.719056 4.81559,-1.787817 -0.11854,-0.01718 -1.48172,-0.06876 -3.03753,-0.103145 -2.88934,-0.08596 -3.08197,-0.120336 -10.14977,-1.581528 -2.35593,-0.498526 -6.59365,-0.687624 -8.74214,-0.412573 z"
       id="path6"
       style="fill:#d45500;stroke:none;stroke-width:0.0159598" />
    <path
       d="m 177.81414,46.734376 c -4.57851,0.498526 -9.26074,2.320721 -13.12803,5.122778 -2.05959,1.495576 -4.59332,3.867869 -5.66016,5.277492 -0.65196,0.893908 -0.77049,1.151765 -0.77049,1.753434 0,0.722002 0.26671,1.048623 0.82975,1.048623 0.13336,0 0.99276,-0.842337 1.8966,-1.856577 1.77807,-2.011293 2.93381,-3.059915 4.134,-3.781917 1.15574,-0.687621 2.48929,-0.65324 3.86729,0.103143 2.48928,1.358052 4.97857,4.641443 6.3862,8.406168 0.66677,1.805007 1.24464,4.142918 1.34837,5.569733 0.0593,0.653239 0.14817,1.186148 0.22225,1.186148 0.14817,0 0.96312,-2.303532 1.21501,-3.524061 0.90385,-4.211678 0.54824,-8.509311 -1.00757,-12.119323 -0.62232,-1.444004 -1.68916,-3.077104 -2.35592,-3.59282 -0.29635,-0.223477 -0.53343,-0.464145 -0.53343,-0.532906 0,-0.464145 3.64503,-1.031432 6.57883,-1.031432 2.11886,0 3.23015,0.928288 4.40071,3.695963 0.32597,0.756384 0.75567,2.148817 0.96311,3.094296 0.3408,1.512766 0.38525,2.062863 0.38525,4.469537 0,2.355101 -0.0445,3.008344 -0.37043,4.555489 -0.38525,1.856578 -1.02239,3.781917 -1.65952,5.122775 -0.20744,0.429765 -0.37044,0.790769 -0.37044,0.825147 0,0.189097 1.70398,-1.06581 2.71155,-1.994098 3.61539,-3.386533 5.92687,-9.179743 5.43791,-13.6149 -0.0741,-0.722002 -0.26671,-1.770624 -0.4297,-2.320721 -0.16299,-0.550097 -0.26671,-1.031432 -0.22226,-1.065813 0.10372,-0.137524 2.756,1.478385 3.86729,2.337912 0.59268,0.464144 1.70397,1.444004 2.48928,2.183197 1.60026,1.529957 1.65953,1.667481 1.49654,3.936631 -0.44452,5.999495 -3.40795,11.586417 -7.97164,15.024521 -0.82977,0.618858 -1.83734,1.306483 -2.25222,1.54715 l -0.75567,0.429765 2.29665,-0.103144 c 2.4893,-0.103145 3.51168,-0.309429 5.64536,-1.134576 3.08197,-1.186146 5.88242,-3.094296 8.00127,-5.449399 1.22983,-1.37524 1.2891,-1.409621 1.52617,-1.100191 0.62232,0.807954 1.71879,5.243107 1.71879,6.996547 0,1.117379 -0.35561,1.873765 -1.54098,3.266195 -2.34111,2.733296 -6.37139,4.933681 -10.23868,5.569731 -1.80769,0.309434 -5.49717,0.275051 -6.8159,-0.0516 -0.56305,-0.154714 -1.06683,-0.240667 -1.09647,-0.189093 -0.10372,0.10314 1.17056,1.409622 2.28185,2.337909 4.0599,3.369345 9.69044,4.778972 15.20243,3.816302 0.62232,-0.103145 0.71122,-0.06877 0.80012,0.257854 0.3408,1.237721 -2.72635,8.148312 -3.94136,8.887515 -0.62232,0.36099 -2.63746,0.49852 -4.20809,0.25785 -5.08229,-0.773577 -9.91269,-3.610012 -14.10595,-8.303031 l -0.93349,-1.031426 v 0.601666 c 0,0.326615 0.0889,1.168959 0.20744,1.873765 0.96312,5.844782 4.50443,11.311376 9.32001,14.371286 0.62232,0.39538 1.17056,0.80795 1.21501,0.9111 0.20744,0.361 -0.63714,1.083 -2.51892,2.14882 -2.04477,1.15176 -4.37107,2.13162 -5.05266,2.13162 -0.82976,0 -2.00032,-0.89391 -3.6154,-2.75048 -1.79287,-2.08006 -2.80044,-3.69597 -3.85246,-6.22297 -1.14093,-2.75049 -1.49654,-4.400787 -1.61508,-7.391937 l -0.0889,-2.527006 -0.84458,1.323668 c -3.43758,5.346255 -4.03027,12.016185 -1.58544,17.603115 0.74086,1.71905 0.75568,2.13162 0.0445,2.28634 -0.68159,0.13752 -2.93381,-0.0516 -4.28217,-0.361 -2.2374,-0.53291 -3.20051,-1.47839 -3.82283,-3.74754 -0.26671,-1.01424 -0.32598,-1.61592 -0.32598,-3.54125 0.0148,-3.4553 0.59269,-5.74164 2.29666,-9.007842 1.62989,-3.111486 3.86729,-5.724446 6.47511,-7.512263 2.96344,-2.028479 5.00821,-4.486724 5.61571,-6.773063 0.82977,-3.111486 0.0445,-5.758834 -2.05959,-6.962172 -1.31872,-0.75638 -2.593,-0.773567 -4.54887,-0.06876 -1.27428,0.446957 -1.60025,0.498527 -3.48204,0.498527 -1.77806,0 -2.29666,-0.06876 -3.63021,-0.481335 -5.37864,-1.633103 -9.64599,-6.119829 -10.83136,-11.431702 -0.23707,-1.048621 -0.29635,-1.770626 -0.26671,-3.386536 0.0296,-1.134572 0,-2.234768 -0.0741,-2.458244 -0.13336,-0.464144 -0.93348,-0.96267 -1.98551,-1.220528 -2.80044,-0.687621 -5.98614,0.584479 -10.20904,4.108538 -1.25946,1.03143 -2.87453,2.578578 -6.41584,6.102638 -8.20871,8.165502 -11.85374,10.812845 -17.66208,12.806947 -1.64471,0.567282 -1.97068,0.80795 -1.83733,1.323668 0.11854,0.446957 1.54098,1.65029 2.81526,2.40667 2.48929,1.461197 7.18634,2.802057 10.83137,3.111486 1.82251,0.154715 5.61571,0.03441 7.27524,-0.22347 1.06683,-0.171912 3.00788,-0.58448 3.64502,-0.773578 0.53342,-0.171906 0.54823,-0.206284 0.38525,-0.653241 -0.10372,-0.257859 -0.17781,-1.375244 -0.17781,-2.612959 0,-1.787812 0.0593,-2.337914 0.32598,-3.231823 0.84458,-2.750482 2.60782,-5.019629 4.87485,-6.25735 1.2891,-0.704811 2.4152,-0.979856 3.97101,-0.979856 2.96344,-0.01718 5.08229,1.083001 8.37171,4.366393 3.30423,3.266195 4.90449,4.33201 7.92719,5.260297 0.93348,0.275051 1.74843,0.361004 3.7932,0.412579 2.94862,0.06876 3.61539,0.257854 3.77838,1.031431 0.22226,1.048618 -0.66677,2.148816 -2.83008,3.558433 -0.65196,0.42977 -3.31905,2.011298 -5.92687,3.524065 -7.08262,4.091347 -10.35721,6.240158 -14.2245,9.31726 -1.8966,1.51277 -5.40828,4.62426 -5.40828,4.79617 0,0.1719 2.80046,2.56138 4.37108,3.74753 1.7336,1.30648 5.39345,3.4381 7.26042,4.22887 4.81558,2.06286 9.7497,3.09429 14.89127,3.12868 4.16362,0.0344 7.0678,-0.32662 10.59428,-1.30649 15.14317,-4.17729 25.02623,-17.27648 25.64855,-34.002865 0.3556,-9.59229 -2.72638,-18.840793 -8.54953,-25.596671 -6.23803,-7.237212 -14.69864,-10.761271 -23.5445,-9.781411 z"
       id="path28"
       style="fill:#d45500;stroke:none;stroke-width:0.0159598" />
    <path
       d="m 103.40224,83.745587 c -4.163629,0.670428 -8.208718,2.802052 -10.698008,5.672871 -0.874214,1.01424 -1.970686,2.492633 -1.822514,2.492633 0.04445,0 0.503784,-0.309434 1.022387,-0.670433 4.133995,-2.922393 7.823473,-4.108539 12.061185,-3.919441 3.31905,0.154714 6.2973,1.083001 12.13528,3.781919 6.3862,2.956766 11.83893,4.194487 16.43225,3.730344 2.02996,-0.20629 3.40795,-0.481335 4.62296,-0.945484 1.09647,-0.42976 2.74118,-1.39243 3.24497,-1.890957 0.25189,-0.257854 0.37043,-0.412574 0.28153,-0.360999 -0.41488,0.223476 -2.54857,0.653236 -4.25254,0.825148 -2.1633,0.223476 -4.66741,0.03441 -7.05298,-0.550097 -2.01513,-0.498532 -5.48236,-1.87377 -7.74939,-3.111486 -4.8304,-2.595773 -5.58607,-2.973963 -7.20115,-3.592821 -3.82283,-1.478388 -7.69011,-1.994101 -11.02398,-1.461197 z"
       id="path29"
       style="fill:#d45500;stroke:none;stroke-width:0.0159598" />
    <path
       d="m 144.04577,94.489667 c -1.36317,0.893909 -3.09678,1.805009 -4.99339,2.630151 -2.593,1.134577 -6.50474,1.959719 -11.54259,2.441054 -4.51923,0.429765 -6.77145,0.979858 -9.4089,2.269148 -2.11886,1.04863 -3.82284,2.37229 -6.00097,4.65863 -3.18569,3.35216 -6.26766,4.96807 -9.92751,5.17435 l -1.77806,0.10315 0.59269,0.361 c 2.56337,1.59872 6.78627,1.68467 10.66837,0.22348 1.94105,-0.7392 4.19326,-2.08006 5.74907,-3.4553 0.75567,-0.65324 2.02995,-1.77063 2.83008,-2.49262 2.31148,-2.0113 4.94894,-3.36935 8.105,-4.14293 1.4669,-0.36099 3.54131,-0.65324 3.54131,-0.49852 0,0.0688 -0.44452,0.39538 -0.99276,0.73919 -2.04477,1.30648 -3.68947,2.57858 -4.65259,3.62721 -3.82283,4.19448 -2.65227,9.90174 2.53374,12.35999 2.83008,1.34086 7.40859,1.47838 9.92751,0.30943 l 0.65195,-0.30943 -1.21501,-0.30943 c -1.46689,-0.3782 -1.9855,-0.65325 -2.74117,-1.49558 -0.75568,-0.82515 -0.99275,-1.37524 -0.99275,-2.3551 0,-2.25196 1.68915,-4.24606 6.96408,-8.19988 3.4524,-2.59577 5.63052,-4.5555 7.03816,-6.377691 0.96311,-1.237721 1.95587,-2.853632 1.76324,-2.853632 -0.0445,0 -0.47415,0.361004 -0.9483,0.807956 -1.25946,1.203337 -3.51167,2.784867 -6.57883,4.641447 -3.46722,2.11443 -5.24528,3.31777 -6.53437,4.43515 -4.01547,3.48968 -5.09711,7.46069 -2.71155,9.98771 0.35561,0.37819 0.78531,0.79076 0.93348,0.8939 0.96312,0.61886 -0.99275,0.22348 -2.2374,-0.46414 -1.64471,-0.89391 -2.54855,-2.28634 -2.68191,-4.14293 -0.31115,-3.88505 3.00789,-8.59526 8.84586,-12.54908 3.89692,-2.647337 6.38621,-4.899298 7.1567,-6.498018 0.14818,-0.309434 0.2519,-0.550096 0.22227,-0.532904 -0.0296,0 -0.74087,0.464138 -1.58545,1.014239 z"
       id="path30"
       style="fill:#d45500;stroke:none;stroke-width:0.0159598" />
    <path
       d="m 108.32154,94.163047 c -5.89724,0.773577 -11.483315,4.160109 -14.254129,8.629643 l -0.296344,0.48133 0.874217,-0.46413 c 4.711862,-2.49263 7.512306,-3.489686 11.690756,-4.211688 1.92624,-0.326621 2.69673,-0.378191 6.06023,-0.326621 9.63117,0.120342 11.6463,0.08595 13.03912,-0.223471 1.40764,-0.326625 5.18601,-1.719056 4.81559,-1.787817 -0.11854,-0.01718 -1.48172,-0.06876 -3.03753,-0.103145 -2.88934,-0.08596 -3.08197,-0.120336 -10.14977,-1.581528 -2.35593,-0.498526 -6.59365,-0.687624 -8.74214,-0.412573 z"
       id="path31"
       style="fill:#d45500;stroke:none;stroke-width:0.0159598" />
    <ellipse
       style="fill:#ffffff;fill-opacity:1;stroke:#fdfdfd;stroke-width:1.15414;stroke-dasharray:none;stroke-opacity:1"
       id="path42"
       cx="154.46916"
       cy="81.401665"
       rx="1.7044561"
       ry="1.6854097" />
    <ellipse
       style="fill:#ffffff;fill-opacity:1;stroke:#fdfdfd;stroke-width:1.41512;stroke-dasharray:none;stroke-opacity:1"
       id="path43"
       ry="0.40584165"
       rx="0.40615916"
       cy="85.98909"
       cx="149.16646" />
    <text
       xml:space="preserve"
       transform="matrix(4.5887948,0,0,4.5887948,-4577.8765,-321.65428)"
       id="text1"
       style="font-style:normal;font-variant:normal;font-weight:normal;font-stretch:normal;font-size:13.947px;font-family:'Helvetica Neue';-inkscape-font-specification:'Helvetica Neue';writing-mode:lr-tb;direction:ltr;white-space:pre;shape-inside:url(#rect1);display:inline;fill:#073252;fill-opacity:1;stroke:none;stroke-width:0;stroke-linecap:round;stroke-linejoin:round;stroke-dasharray:none"><tspan
         x="1047.0137"
         y="93.566189"
         id="tspan4"><tspan
           style="font-family:Inter;-inkscape-font-specification:Inter"
           id="tspan1">Cambra </tspan></tspan></text>
    <text
       xml:space="preserve"
       style="font-size:2.95741px;writing-mode:lr-tb;direction:ltr;fill:#b1b1b1;fill-opacity:1;stroke:#fdfdfd;stroke-width:9.89092;stroke-linecap:round;stroke-linejoin:round"
       x="351.64188"
       y="63.992218"
       id="text2"><tspan
         sodipodi:role="line"
         id="tspan2"
         style="stroke-width:9.89092"
         x="351.64188"
         y="63.992218" /></text>
  </g>
</svg>
